<svg width="30" height="23" viewBox="0 0 30 23" fill="none" xmlns="http://www.w3.org/2000/svg">
<path fill-rule="evenodd" clip-rule="evenodd" d="M11.7101 19.374C12.4787 20.2035 12.4787 21.5484 11.7101 22.3779C10.9415 23.2074 9.69528 23.2074 8.92667 22.3779L0.576459 13.3664C0.105925 12.8586 -0.0765543 12.1576 0.0290156 11.5C-0.0765542 10.8424 0.105926 10.1414 0.576459 9.63365L8.92667 0.622118C9.69528 -0.207371 10.9415 -0.207371 11.7101 0.622118C12.4787 1.45161 12.4787 2.79647 11.7101 3.62596L6.38204 9.37596L27.876 9.37596C29.049 9.37596 30 10.3269 30 11.5C30 12.6731 29.049 13.624 27.876 13.624L6.38204 13.624L11.7101 19.374Z" fill="black"/>
</svg>
