<svg xmlns="http://www.w3.org/2000/svg" width="705" viewBox="0 0 705 591" height="591" version="1.0"><defs><clipPath id="a"><path d="M 59.59375 2.097656 L 647.351562 2.097656 L 647.351562 589.851562 L 59.59375 589.851562 Z M 59.59375 2.097656"/></clipPath></defs><g clip-path="url(#a)"><path d="M 353.472656 2.097656 C 191.539062 2.097656 59.59375 134.042969 59.59375 295.972656 C 59.59375 457.90625 191.539062 589.851562 353.472656 589.851562 C 515.40625 589.851562 647.351562 457.90625 647.351562 295.972656 C 647.351562 134.042969 515.40625 2.097656 353.472656 2.097656 Z M 353.472656 538.445312 C 219.816406 538.445312 111.003906 429.632812 111.003906 295.972656 C 111.003906 162.316406 219.816406 53.503906 353.472656 53.503906 C 487.132812 53.503906 595.945312 162.316406 595.945312 295.972656 C 595.945312 429.632812 487.132812 538.445312 353.472656 538.445312 Z M 353.472656 538.445312"/></g><path d="M 365.46875 266.84375 L 365.46875 205.15625 C 375.75 209.4375 381.746094 218.007812 384.316406 230 L 423.730469 224.859375 C 421.160156 209.4375 414.304688 196.585938 404.878906 187.164062 C 395.457031 177.738281 381.746094 171.738281 365.46875 170.027344 L 365.46875 154.605469 L 342.335938 154.605469 L 342.335938 170.027344 C 324.34375 171.738281 309.777344 178.59375 299.496094 190.589844 C 288.359375 202.585938 283.21875 216.292969 283.21875 233.429688 C 283.21875 250.566406 288.359375 265.128906 297.78125 276.269531 C 307.207031 287.40625 322.628906 296.832031 343.191406 302.828125 L 343.191406 368.800781 C 337.195312 366.230469 332.054688 361.945312 327.769531 355.949219 C 323.484375 349.953125 320.058594 342.242188 318.34375 334.53125 L 276.363281 339.671875 C 279.789062 360.234375 286.644531 376.511719 297.78125 387.648438 C 308.921875 398.789062 323.484375 405.644531 341.476562 408.214844 L 341.476562 436.488281 L 364.613281 436.488281 L 364.613281 407.355469 C 385.175781 404.785156 400.597656 396.21875 412.589844 383.367188 C 424.585938 370.515625 429.726562 354.234375 429.726562 335.386719 C 429.726562 318.25 425.445312 304.542969 416.019531 293.402344 C 406.59375 282.265625 390.316406 273.699219 365.46875 266.84375 Z M 342.335938 259.988281 C 335.480469 257.417969 330.339844 253.136719 326.914062 248.851562 C 323.484375 243.710938 321.773438 238.570312 321.773438 233.429688 C 321.773438 227.429688 323.484375 221.433594 326.914062 217.148438 C 330.339844 212.867188 335.480469 208.582031 341.476562 206.867188 Z M 384.316406 361.089844 C 379.175781 367.085938 373.179688 370.515625 365.46875 372.226562 L 365.46875 311.394531 C 374.894531 313.964844 381.746094 318.25 386.03125 323.390625 C 390.316406 328.53125 392.027344 334.53125 392.027344 341.382812 C 392.027344 349.09375 389.457031 355.949219 384.316406 361.089844 Z M 384.316406 361.089844"/></svg>