<svg width="14" height="14" viewBox="0 0 14 14" fill="none" xmlns="http://www.w3.org/2000/svg">
<path d="M13.0202 0.980001C13.4676 1.42734 13.7189 2.03405 13.7189 2.66667C13.7189 3.29929 13.4676 3.906 13.0202 4.35333L5.04157 12.3333C4.857 12.518 4.62744 12.6513 4.37557 12.72L0.964905 13.65C0.879898 13.6731 0.790307 13.6733 0.705199 13.6506C0.620092 13.6279 0.542487 13.5831 0.480239 13.5208C0.417991 13.4585 0.373309 13.3808 0.350715 13.2957C0.328121 13.2106 0.328416 13.121 0.351571 13.036L1.28157 9.62533C1.3503 9.37347 1.48359 9.1439 1.66824 8.95933L9.6469 0.980001C10.0942 0.532676 10.7009 0.281372 11.3336 0.281372C11.9662 0.281372 12.5729 0.532676 13.0202 0.980001ZM9.00024 3.04L2.3749 9.66667C2.31343 9.72822 2.26909 9.80474 2.24624 9.88867L1.54624 12.4553L4.1129 11.7553C4.1965 11.7319 4.27255 11.6871 4.33357 11.6253L10.9602 5L9.00024 3.04ZM10.3536 1.68667L9.7069 2.33333L11.6669 4.29333L12.3136 3.64667C12.5692 3.38586 12.7115 3.03473 12.7097 2.66957C12.7078 2.30441 12.5619 1.95473 12.3037 1.69652C12.0455 1.43831 11.6958 1.29243 11.3307 1.29059C10.9655 1.28874 10.6144 1.43108 10.3536 1.68667Z" fill="#5C5C5C"/>
</svg>
