<svg width="42" height="39" viewBox="0 0 42 39" fill="none" xmlns="http://www.w3.org/2000/svg">
<path d="M40.8347 16.0024L35.8682 7.48839C35.3306 6.56673 34.3439 6 33.2769 6H8.72311C7.65611 6 6.66941 6.56673 6.13177 7.48839L1.16529 16.0024C0.478603 17.1795 0.67165 18.6716 1.6353 19.6353L19.5858 37.5858C20.3668 38.3668 21.6332 38.3668 22.4142 37.5858L40.3647 19.6353C41.3284 18.6716 41.5214 17.1795 40.8347 16.0024Z" fill="#576684"/>
<path d="M33.0697 24.3587C33.4027 23.5146 34.5973 23.5146 34.9303 24.3587L36.1034 27.3332C36.205 27.591 36.409 27.795 36.6668 27.8966L39.6413 29.0697C40.4854 29.4027 40.4854 30.5973 39.6413 30.9303L36.6668 32.1034C36.409 32.205 36.205 32.409 36.1034 32.6668L34.9303 35.6413C34.5973 36.4854 33.4027 36.4854 33.0697 35.6413L31.8966 32.6668C31.795 32.409 31.591 32.205 31.3332 32.1034L28.3587 30.9303C27.5146 30.5973 27.5146 29.4027 28.3587 29.0697L31.3332 27.8966C31.591 27.795 31.795 27.591 31.8966 27.3332L33.0697 24.3587Z" fill="#ACB4C9"/>
<path d="M16.0697 2.35871C16.4027 1.51457 17.5973 1.51457 17.9303 2.35872L19.9519 7.4847C20.0536 7.74243 20.2576 7.94643 20.5153 8.04808L25.6413 10.0697C26.4854 10.4027 26.4854 11.5973 25.6413 11.9303L20.5153 13.9519C20.2576 14.0536 20.0536 14.2576 19.9519 14.5153L17.9303 19.6413C17.5973 20.4854 16.4027 20.4854 16.0697 19.6413L14.0481 14.5153C13.9464 14.2576 13.7424 14.0536 13.4847 13.9519L8.35871 11.9303C7.51457 11.5973 7.51457 10.4027 8.35872 10.0697L13.4847 8.04808C13.7424 7.94643 13.9464 7.74243 14.0481 7.4847L16.0697 2.35871Z" fill="#ACB4C9"/>
</svg>
