<svg xmlns="http://www.w3.org/2000/svg" width="705" viewBox="0 0 705 591" height="591" version="1.0"><path fill="#010101" d="M 589.425781 267.605469 L 484.535156 372.457031 C 426.644531 430.386719 332.726562 430.386719 274.832031 372.457031 C 265.707031 363.367188 258.574219 353.121094 252.308594 342.550781 L 301.042969 293.816406 C 303.363281 291.480469 306.222656 290.140625 308.957031 288.566406 C 312.324219 300.082031 318.207031 310.980469 327.257812 320.03125 C 356.167969 348.957031 403.21875 348.921875 432.109375 320.03125 L 536.964844 215.175781 C 565.890625 186.246094 565.890625 139.214844 536.964844 110.304688 C 508.070312 81.394531 461.039062 81.394531 432.109375 110.304688 L 394.816406 147.632812 C 364.566406 135.847656 331.964844 132.679688 300.230469 137.332031 L 379.683594 57.878906 C 437.613281 -0.03125 531.496094 -0.03125 589.425781 57.878906 C 647.320312 115.792969 647.320312 209.691406 589.425781 267.605469 Z M 312.140625 440.019531 L 274.832031 477.347656 C 245.921875 506.238281 198.871094 506.238281 169.960938 477.347656 C 141.050781 448.417969 141.050781 401.386719 169.960938 372.457031 L 274.832031 267.605469 C 303.761719 238.675781 350.773438 238.675781 379.683594 267.605469 C 388.71875 276.640625 394.601562 287.535156 398.003906 299.03125 C 400.757812 297.4375 403.582031 296.136719 405.898438 293.820312 L 454.632812 245.101562 C 448.40625 234.496094 441.234375 224.285156 432.113281 215.179688 C 374.21875 157.269531 280.300781 157.269531 222.386719 215.179688 L 117.535156 320.03125 C 59.625 377.960938 59.625 471.84375 117.535156 529.773438 C 175.445312 587.667969 269.347656 587.667969 327.257812 529.773438 L 406.730469 450.300781 C 374.976562 454.972656 342.375 451.785156 312.140625 440.019531 Z M 312.140625 440.019531"/></svg>