<svg xmlns="http://www.w3.org/2000/svg" width="705" viewBox="0 0 705 591" height="591" version="1.0"><path d="M 547.332031 411.910156 C 541.949219 411.921875 536.613281 412.433594 531.328125 413.445312 C 526.039062 414.457031 520.890625 415.949219 515.886719 417.929688 C 510.878906 419.90625 506.097656 422.335938 501.546875 425.210938 C 496.996094 428.085938 492.75 431.359375 488.8125 435.035156 L 276.121094 328.644531 C 277.957031 325.230469 279.605469 321.730469 281.066406 318.144531 C 282.53125 314.558594 283.800781 310.90625 284.875 307.183594 C 285.953125 303.460938 286.828125 299.695312 287.503906 295.878906 C 288.179688 292.066406 288.652344 288.226562 288.921875 284.363281 C 289.191406 280.5 289.257812 276.628906 289.117188 272.757812 C 288.976562 268.886719 288.632812 265.035156 288.082031 261.199219 C 287.535156 257.367188 286.785156 253.570312 285.832031 249.816406 C 284.882812 246.0625 283.734375 242.367188 282.390625 238.734375 L 447.628906 145.75 C 448.683594 146.757812 449.769531 147.730469 450.882812 148.675781 C 451.996094 149.621094 453.136719 150.53125 454.304688 151.40625 C 455.472656 152.285156 456.664062 153.125 457.878906 153.933594 C 459.097656 154.742188 460.335938 155.511719 461.597656 156.246094 C 462.859375 156.980469 464.140625 157.679688 465.445312 158.339844 C 466.746094 158.996094 468.066406 159.621094 469.40625 160.203125 C 470.742188 160.785156 472.097656 161.328125 473.46875 161.832031 C 474.839844 162.332031 476.222656 162.796875 477.621094 163.21875 C 479.015625 163.640625 480.425781 164.023438 481.847656 164.363281 C 483.265625 164.703125 484.695312 165 486.132812 165.253906 C 487.566406 165.511719 489.011719 165.726562 490.460938 165.898438 C 491.910156 166.070312 493.363281 166.199219 494.820312 166.285156 C 496.277344 166.371094 497.738281 166.417969 499.195312 166.417969 C 500.65625 166.417969 502.113281 166.378906 503.574219 166.292969 C 505.03125 166.210938 506.484375 166.082031 507.933594 165.914062 C 509.382812 165.746094 510.828125 165.535156 512.265625 165.28125 C 513.703125 165.027344 515.132812 164.730469 516.550781 164.394531 C 517.972656 164.058594 519.382812 163.679688 520.78125 163.261719 C 522.175781 162.839844 523.5625 162.378906 524.933594 161.878906 C 526.304688 161.378906 527.660156 160.839844 529 160.257812 C 530.339844 159.679688 531.660156 159.058594 532.964844 158.402344 C 534.269531 157.746094 535.550781 157.050781 536.816406 156.320312 C 538.078125 155.585938 539.320312 154.816406 540.535156 154.011719 C 541.753906 153.207031 542.949219 152.367188 544.117188 151.492188 C 545.285156 150.617188 546.429688 149.710938 547.542969 148.769531 C 548.660156 147.828125 549.746094 146.855469 550.804688 145.847656 C 551.863281 144.84375 552.894531 143.808594 553.890625 142.742188 C 554.890625 141.675781 555.855469 140.582031 556.792969 139.460938 C 557.726562 138.339844 558.625 137.191406 559.492188 136.015625 C 560.359375 134.839844 561.191406 133.640625 561.992188 132.417969 C 562.789062 131.195312 563.546875 129.949219 564.273438 128.683594 C 564.996094 127.414062 565.683594 126.125 566.332031 124.816406 C 566.980469 123.511719 567.59375 122.183594 568.164062 120.839844 C 568.734375 119.496094 569.265625 118.136719 569.757812 116.761719 C 570.25 115.386719 570.703125 114 571.113281 112.597656 C 571.523438 111.195312 571.894531 109.785156 572.222656 108.363281 C 572.550781 106.9375 572.835938 105.507812 573.082031 104.066406 C 573.328125 102.628906 573.527344 101.183594 573.6875 99.730469 C 573.847656 98.277344 573.964844 96.824219 574.042969 95.367188 C 574.117188 93.90625 574.148438 92.449219 574.140625 90.988281 C 574.128906 89.527344 574.074219 88.066406 573.980469 86.609375 C 573.882812 85.152344 573.746094 83.699219 573.566406 82.25 C 573.386719 80.800781 573.164062 79.359375 572.898438 77.921875 C 572.632812 76.488281 572.328125 75.058594 571.976562 73.640625 C 571.628906 72.222656 571.242188 70.816406 570.808594 69.421875 C 570.378906 68.027344 569.910156 66.644531 569.398438 65.277344 C 568.886719 63.910156 568.335938 62.558594 567.746094 61.222656 C 567.152344 59.886719 566.523438 58.566406 565.859375 57.269531 C 565.191406 55.96875 564.484375 54.691406 563.742188 53.433594 C 563 52.175781 562.222656 50.941406 561.410156 49.730469 C 560.59375 48.519531 559.746094 47.332031 558.863281 46.167969 C 557.976562 45.007812 557.0625 43.871094 556.113281 42.761719 C 555.160156 41.652344 554.179688 40.574219 553.167969 39.523438 C 552.152344 38.472656 551.109375 37.449219 550.039062 36.460938 C 548.964844 35.46875 547.863281 34.511719 546.734375 33.585938 C 545.605469 32.660156 544.449219 31.769531 543.269531 30.910156 C 542.089844 30.050781 540.882812 29.226562 539.652344 28.441406 C 538.425781 27.652344 537.171875 26.902344 535.902344 26.1875 C 534.628906 25.472656 533.335938 24.796875 532.023438 24.15625 C 530.710938 23.519531 529.378906 22.917969 528.03125 22.359375 C 526.683594 21.796875 525.320312 21.277344 523.941406 20.792969 C 522.5625 20.3125 521.171875 19.871094 519.769531 19.472656 C 518.363281 19.074219 516.949219 18.714844 515.527344 18.398438 C 514.101562 18.078125 512.667969 17.804688 511.226562 17.570312 C 509.785156 17.339844 508.339844 17.148438 506.886719 17 C 505.433594 16.851562 503.980469 16.746094 502.519531 16.679688 C 501.0625 16.617188 499.601562 16.597656 498.144531 16.617188 C 496.683594 16.640625 495.226562 16.703125 493.769531 16.8125 C 492.316406 16.917969 490.863281 17.070312 489.417969 17.261719 C 487.96875 17.453125 486.527344 17.6875 485.09375 17.964844 C 483.664062 18.242188 482.238281 18.558594 480.824219 18.917969 C 479.410156 19.277344 478.003906 19.679688 476.613281 20.121094 C 475.222656 20.5625 473.84375 21.046875 472.484375 21.566406 C 471.121094 22.089844 469.773438 22.652344 468.441406 23.253906 C 467.113281 23.855469 465.800781 24.492188 464.507812 25.171875 C 463.214844 25.851562 461.941406 26.566406 460.691406 27.316406 C 459.441406 28.070312 458.210938 28.859375 457.007812 29.683594 C 455.800781 30.507812 454.621094 31.367188 453.46875 32.257812 C 452.3125 33.152344 451.183594 34.078125 450.085938 35.039062 C 448.984375 35.996094 447.914062 36.988281 446.871094 38.011719 C 445.828125 39.03125 444.816406 40.085938 443.832031 41.164062 C 442.851562 42.246094 441.902344 43.355469 440.988281 44.492188 C 440.070312 45.628906 439.1875 46.792969 438.339844 47.980469 C 437.492188 49.167969 436.679688 50.378906 435.902344 51.617188 C 435.125 52.851562 434.382812 54.109375 433.679688 55.390625 C 432.976562 56.667969 432.308594 57.96875 431.679688 59.285156 C 431.054688 60.605469 430.464844 61.941406 429.914062 63.292969 C 429.363281 64.644531 428.855469 66.011719 428.382812 67.394531 C 427.914062 68.777344 427.484375 70.171875 427.097656 71.582031 C 426.707031 72.988281 426.359375 74.40625 426.054688 75.835938 C 425.75 77.261719 425.484375 78.699219 425.265625 80.140625 C 425.042969 81.585938 424.863281 83.035156 424.726562 84.488281 C 424.589844 85.941406 424.496094 87.398438 424.445312 88.859375 C 424.390625 90.316406 424.382812 91.777344 424.417969 93.238281 C 424.449219 94.699219 424.527344 96.15625 424.644531 97.609375 C 424.761719 99.066406 424.925781 100.515625 425.128906 101.964844 L 255.589844 197.285156 C 254.34375 196.066406 253.070312 194.882812 251.765625 193.726562 C 250.460938 192.570312 249.132812 191.445312 247.777344 190.351562 C 246.421875 189.257812 245.039062 188.195312 243.632812 187.167969 C 242.226562 186.140625 240.796875 185.144531 239.34375 184.1875 C 237.894531 183.226562 236.417969 182.300781 234.921875 181.410156 C 233.425781 180.519531 231.90625 179.664062 230.371094 178.84375 C 228.832031 178.023438 227.277344 177.242188 225.703125 176.496094 C 224.128906 175.75 222.539062 175.042969 220.933594 174.371094 C 219.324219 173.699219 217.703125 173.066406 216.066406 172.472656 C 214.429688 171.878906 212.777344 171.324219 211.113281 170.808594 C 209.449219 170.292969 207.777344 169.816406 206.089844 169.378906 C 204.402344 168.941406 202.707031 168.546875 201.003906 168.1875 C 199.300781 167.832031 197.585938 167.515625 195.867188 167.238281 C 194.148438 166.964844 192.421875 166.730469 190.691406 166.535156 C 188.960938 166.339844 187.226562 166.1875 185.488281 166.074219 C 183.75 165.960938 182.011719 165.890625 180.269531 165.859375 C 178.527344 165.828125 176.789062 165.839844 175.046875 165.890625 C 173.304688 165.945312 171.566406 166.035156 169.832031 166.171875 C 168.09375 166.304688 166.363281 166.480469 164.632812 166.695312 C 162.90625 166.910156 161.183594 167.167969 159.46875 167.464844 C 157.753906 167.761719 156.042969 168.097656 154.34375 168.476562 C 152.644531 168.855469 150.953125 169.273438 149.273438 169.730469 C 147.59375 170.1875 145.925781 170.6875 144.265625 171.222656 C 142.609375 171.757812 140.96875 172.335938 139.335938 172.949219 C 137.707031 173.5625 136.09375 174.214844 134.492188 174.90625 C 132.894531 175.597656 131.3125 176.324219 129.75 177.089844 C 128.183594 177.855469 126.636719 178.65625 125.113281 179.492188 C 123.585938 180.332031 122.078125 181.207031 120.59375 182.113281 C 119.105469 183.023438 117.644531 183.96875 116.203125 184.945312 C 114.761719 185.925781 113.34375 186.9375 111.953125 187.984375 C 110.558594 189.027344 109.191406 190.105469 107.847656 191.214844 C 106.503906 192.324219 105.191406 193.46875 103.902344 194.640625 C 102.613281 195.8125 101.351562 197.011719 100.121094 198.246094 C 98.890625 199.476562 97.6875 200.738281 96.515625 202.023438 C 95.34375 203.3125 94.203125 204.628906 93.089844 205.972656 C 91.980469 207.3125 90.902344 208.679688 89.859375 210.074219 C 88.8125 211.46875 87.800781 212.886719 86.820312 214.328125 C 85.84375 215.769531 84.898438 217.230469 83.988281 218.71875 C 83.078125 220.203125 82.203125 221.707031 81.367188 223.234375 C 80.527344 224.761719 79.726562 226.308594 78.960938 227.875 C 78.195312 229.4375 77.464844 231.019531 76.773438 232.621094 C 76.082031 234.21875 75.429688 235.835938 74.816406 237.464844 C 74.203125 239.09375 73.625 240.738281 73.089844 242.394531 C 72.550781 244.054688 72.054688 245.722656 71.59375 247.402344 C 71.136719 249.085938 70.71875 250.773438 70.339844 252.476562 C 69.960938 254.175781 69.621094 255.882812 69.324219 257.601562 C 69.027344 259.316406 68.769531 261.039062 68.554688 262.769531 C 68.335938 264.5 68.160156 266.230469 68.027344 267.96875 C 67.890625 269.707031 67.796875 271.445312 67.746094 273.1875 C 67.691406 274.929688 67.679688 276.667969 67.710938 278.410156 C 67.738281 280.152344 67.808594 281.894531 67.921875 283.632812 C 68.03125 285.371094 68.183594 287.105469 68.378906 288.839844 C 68.574219 290.570312 68.804688 292.296875 69.082031 294.015625 C 69.355469 295.738281 69.671875 297.449219 70.027344 299.15625 C 70.382812 300.859375 70.78125 302.558594 71.214844 304.242188 C 71.652344 305.929688 72.125 307.605469 72.640625 309.269531 C 73.15625 310.933594 73.710938 312.585938 74.304688 314.226562 C 74.898438 315.863281 75.527344 317.484375 76.199219 319.09375 C 76.867188 320.703125 77.574219 322.292969 78.320312 323.871094 C 79.0625 325.445312 79.84375 327 80.664062 328.539062 C 81.480469 330.078125 82.335938 331.59375 83.226562 333.09375 C 84.113281 334.589844 85.039062 336.066406 86 337.519531 C 86.957031 338.976562 87.953125 340.40625 88.976562 341.8125 C 90.003906 343.21875 91.066406 344.601562 92.15625 345.960938 C 93.25 347.316406 94.371094 348.648438 95.527344 349.949219 C 96.683594 351.253906 97.867188 352.53125 99.082031 353.777344 C 100.296875 355.027344 101.542969 356.246094 102.816406 357.433594 C 104.089844 358.625 105.386719 359.78125 106.714844 360.910156 C 108.042969 362.039062 109.394531 363.132812 110.777344 364.199219 C 112.15625 365.261719 113.558594 366.292969 114.984375 367.289062 C 116.414062 368.289062 117.863281 369.25 119.335938 370.179688 C 120.8125 371.109375 122.304688 372.003906 123.820312 372.863281 C 125.335938 373.71875 126.871094 374.542969 128.425781 375.328125 C 129.980469 376.113281 131.550781 376.863281 133.140625 377.574219 C 134.730469 378.289062 136.335938 378.960938 137.957031 379.597656 C 139.578125 380.234375 141.214844 380.832031 142.863281 381.390625 C 144.515625 381.949219 146.175781 382.46875 147.851562 382.945312 C 149.523438 383.425781 151.207031 383.867188 152.902344 384.269531 C 154.597656 384.667969 156.300781 385.027344 158.015625 385.347656 C 159.726562 385.667969 161.445312 385.949219 163.167969 386.1875 C 164.894531 386.425781 166.625 386.625 168.359375 386.78125 C 170.09375 386.9375 171.832031 387.054688 173.570312 387.128906 C 175.3125 387.207031 177.050781 387.238281 178.792969 387.230469 C 180.535156 387.226562 182.273438 387.175781 184.015625 387.085938 C 185.753906 387 187.488281 386.867188 189.222656 386.695312 C 190.957031 386.523438 192.683594 386.3125 194.40625 386.058594 C 196.128906 385.808594 197.847656 385.515625 199.554688 385.179688 C 201.265625 384.84375 202.964844 384.472656 204.65625 384.058594 C 206.347656 383.644531 208.03125 383.1875 209.699219 382.695312 C 211.371094 382.199219 213.027344 381.667969 214.671875 381.097656 C 216.316406 380.523438 217.949219 379.914062 219.566406 379.265625 C 221.179688 378.617188 222.78125 377.929688 224.363281 377.203125 C 225.949219 376.480469 227.515625 375.71875 229.0625 374.917969 C 230.609375 374.121094 232.136719 373.285156 233.644531 372.414062 C 235.15625 371.542969 236.640625 370.636719 238.109375 369.695312 C 239.574219 368.753906 241.015625 367.78125 242.433594 366.769531 L 463.734375 477.464844 C 463.378906 478.90625 463.0625 480.351562 462.785156 481.804688 C 462.507812 483.261719 462.265625 484.722656 462.0625 486.1875 C 461.859375 487.65625 461.695312 489.125 461.566406 490.601562 C 461.4375 492.078125 461.351562 493.554688 461.296875 495.035156 C 461.246094 496.515625 461.234375 497.996094 461.261719 499.476562 C 461.285156 500.957031 461.347656 502.4375 461.449219 503.914062 C 461.550781 505.390625 461.691406 506.867188 461.867188 508.335938 C 462.046875 509.804688 462.261719 511.269531 462.515625 512.730469 C 462.769531 514.1875 463.058594 515.640625 463.386719 517.085938 C 463.714844 518.527344 464.082031 519.964844 464.480469 521.390625 C 464.882812 522.8125 465.324219 524.226562 465.796875 525.632812 C 466.273438 527.035156 466.785156 528.421875 467.332031 529.800781 C 467.875 531.175781 468.457031 532.539062 469.074219 533.882812 C 469.691406 535.230469 470.34375 536.558594 471.027344 537.871094 C 471.714844 539.183594 472.433594 540.480469 473.1875 541.753906 C 473.9375 543.03125 474.722656 544.285156 475.539062 545.519531 C 476.355469 546.753906 477.203125 547.96875 478.085938 549.160156 C 478.964844 550.351562 479.875 551.519531 480.8125 552.664062 C 481.753906 553.808594 482.722656 554.925781 483.71875 556.019531 C 484.714844 557.117188 485.742188 558.183594 486.792969 559.222656 C 487.847656 560.265625 488.925781 561.28125 490.03125 562.265625 C 491.136719 563.25 492.265625 564.207031 493.417969 565.132812 C 494.574219 566.0625 495.75 566.960938 496.953125 567.824219 C 498.152344 568.691406 499.375 569.527344 500.617188 570.332031 C 501.859375 571.132812 503.125 571.90625 504.40625 572.644531 C 505.691406 573.382812 506.992188 574.085938 508.3125 574.757812 C 509.632812 575.429688 510.96875 576.066406 512.320312 576.667969 C 513.671875 577.269531 515.039062 577.835938 516.421875 578.367188 C 517.804688 578.898438 519.199219 579.394531 520.605469 579.855469 C 522.011719 580.3125 523.429688 580.738281 524.859375 581.121094 C 526.289062 581.507812 527.726562 581.859375 529.175781 582.171875 C 530.621094 582.480469 532.074219 582.757812 533.539062 582.992188 C 535 583.230469 536.464844 583.429688 537.9375 583.589844 C 539.40625 583.753906 540.882812 583.875 542.359375 583.960938 C 543.839844 584.046875 545.316406 584.09375 546.796875 584.101562 C 548.277344 584.109375 549.757812 584.082031 551.238281 584.011719 C 552.714844 583.945312 554.191406 583.839844 555.664062 583.695312 C 557.140625 583.550781 558.609375 583.371094 560.070312 583.152344 C 561.535156 582.929688 562.992188 582.671875 564.445312 582.378906 C 565.894531 582.085938 567.335938 581.75 568.769531 581.382812 C 570.203125 581.011719 571.625 580.605469 573.039062 580.164062 C 574.453125 579.722656 575.851562 579.242188 577.242188 578.726562 C 578.628906 578.210938 580 577.660156 581.363281 577.074219 C 582.722656 576.488281 584.066406 575.867188 585.390625 575.214844 C 586.71875 574.558594 588.03125 573.867188 589.320312 573.144531 C 590.613281 572.421875 591.886719 571.667969 593.140625 570.878906 C 594.390625 570.089844 595.625 569.269531 596.835938 568.417969 C 598.042969 567.5625 599.234375 566.679688 600.398438 565.769531 C 601.5625 564.855469 602.703125 563.910156 603.820312 562.9375 C 604.9375 561.964844 606.027344 560.964844 607.09375 559.9375 C 608.15625 558.90625 609.195312 557.851562 610.207031 556.769531 C 611.214844 555.6875 612.199219 554.578125 613.152344 553.445312 C 614.105469 552.3125 615.027344 551.15625 615.921875 549.976562 C 616.816406 548.796875 617.675781 547.59375 618.507812 546.367188 C 619.339844 545.140625 620.140625 543.894531 620.90625 542.628906 C 621.675781 541.363281 622.40625 540.078125 623.109375 538.773438 C 623.808594 537.46875 624.476562 536.144531 625.109375 534.808594 C 625.742188 533.46875 626.339844 532.113281 626.902344 530.746094 C 627.464844 529.375 627.992188 527.992188 628.484375 526.59375 C 628.976562 525.195312 629.429688 523.789062 629.851562 522.367188 C 630.269531 520.949219 630.652344 519.515625 630.996094 518.078125 C 631.339844 516.636719 631.648438 515.1875 631.917969 513.734375 C 632.191406 512.277344 632.421875 510.8125 632.617188 509.347656 C 632.8125 507.878906 632.96875 506.40625 633.089844 504.929688 C 633.207031 503.453125 633.289062 501.976562 633.332031 500.496094 C 633.375 499.015625 633.378906 497.535156 633.34375 496.054688 C 633.3125 494.574219 633.238281 493.09375 633.128906 491.617188 C 633.019531 490.140625 632.871094 488.667969 632.6875 487.199219 C 632.5 485.726562 632.277344 484.265625 632.015625 482.808594 C 631.753906 481.347656 631.457031 479.898438 631.121094 478.457031 C 630.785156 477.015625 630.410156 475.582031 630 474.160156 C 629.589844 472.734375 629.144531 471.324219 628.660156 469.925781 C 628.179688 468.523438 627.660156 467.136719 627.105469 465.765625 C 626.550781 464.390625 625.960938 463.035156 625.335938 461.691406 C 624.710938 460.347656 624.054688 459.023438 623.359375 457.714844 C 622.667969 456.40625 621.941406 455.113281 621.183594 453.84375 C 620.421875 452.570312 619.632812 451.320312 618.808594 450.089844 C 617.984375 448.859375 617.128906 447.652344 616.242188 446.464844 C 615.355469 445.277344 614.441406 444.117188 613.496094 442.976562 C 612.546875 441.839844 611.574219 440.722656 610.570312 439.636719 C 609.566406 438.546875 608.535156 437.484375 607.476562 436.449219 C 606.417969 435.414062 605.332031 434.40625 604.222656 433.425781 C 603.113281 432.449219 601.976562 431.496094 600.816406 430.578125 C 599.660156 429.65625 598.476562 428.765625 597.269531 427.90625 C 596.066406 427.046875 594.839844 426.21875 593.589844 425.421875 C 592.34375 424.625 591.074219 423.859375 589.789062 423.128906 C 588.5 422.398438 587.195312 421.703125 585.871094 421.039062 C 584.546875 420.375 583.207031 419.746094 581.851562 419.152344 C 580.496094 418.554688 579.125 417.996094 577.742188 417.472656 C 576.355469 416.949219 574.960938 416.460938 573.550781 416.011719 C 572.140625 415.558594 570.71875 415.144531 569.289062 414.765625 C 567.855469 414.386719 566.417969 414.046875 564.96875 413.742188 C 563.519531 413.4375 562.0625 413.171875 560.601562 412.945312 C 559.136719 412.714844 557.671875 412.523438 556.199219 412.371094 C 554.726562 412.21875 553.25 412.101562 551.773438 412.027344 C 550.292969 411.949219 548.8125 411.910156 547.332031 411.910156 Z M 498.15625 67.523438 C 498.960938 67.523438 499.765625 67.5625 500.566406 67.644531 C 501.367188 67.722656 502.164062 67.839844 502.953125 67.996094 C 503.742188 68.15625 504.523438 68.351562 505.292969 68.582031 C 506.066406 68.816406 506.820312 69.089844 507.566406 69.398438 C 508.308594 69.707031 509.039062 70.050781 509.746094 70.429688 C 510.457031 70.808594 511.148438 71.222656 511.816406 71.671875 C 512.488281 72.117188 513.132812 72.597656 513.753906 73.109375 C 514.378906 73.621094 514.972656 74.160156 515.542969 74.730469 C 516.113281 75.300781 516.652344 75.894531 517.164062 76.519531 C 517.675781 77.140625 518.152344 77.789062 518.601562 78.457031 C 519.046875 79.128906 519.460938 79.816406 519.839844 80.527344 C 520.222656 81.238281 520.566406 81.964844 520.875 82.710938 C 521.179688 83.453125 521.453125 84.210938 521.6875 84.984375 C 521.921875 85.753906 522.117188 86.535156 522.273438 87.324219 C 522.429688 88.113281 522.546875 88.910156 522.625 89.710938 C 522.707031 90.515625 522.746094 91.316406 522.746094 92.125 C 522.746094 92.929688 522.707031 93.734375 522.625 94.535156 C 522.546875 95.335938 522.429688 96.132812 522.273438 96.921875 C 522.117188 97.710938 521.921875 98.492188 521.6875 99.265625 C 521.453125 100.035156 521.179688 100.792969 520.875 101.539062 C 520.566406 102.28125 520.222656 103.007812 519.839844 103.71875 C 519.460938 104.429688 519.046875 105.121094 518.601562 105.789062 C 518.152344 106.460938 517.675781 107.105469 517.164062 107.730469 C 516.652344 108.351562 516.113281 108.949219 515.542969 109.519531 C 514.972656 110.085938 514.378906 110.628906 513.753906 111.140625 C 513.132812 111.648438 512.488281 112.128906 511.816406 112.578125 C 511.148438 113.023438 510.457031 113.4375 509.746094 113.816406 C 509.039062 114.199219 508.308594 114.542969 507.566406 114.851562 C 506.820312 115.160156 506.066406 115.429688 505.292969 115.664062 C 504.523438 115.898438 503.742188 116.09375 502.953125 116.25 C 502.164062 116.40625 501.367188 116.523438 500.566406 116.605469 C 499.765625 116.683594 498.960938 116.722656 498.15625 116.722656 C 497.351562 116.722656 496.546875 116.683594 495.746094 116.605469 C 494.945312 116.523438 494.148438 116.40625 493.359375 116.25 C 492.570312 116.09375 491.789062 115.898438 491.019531 115.664062 C 490.25 115.429688 489.492188 115.160156 488.746094 114.851562 C 488.003906 114.542969 487.277344 114.199219 486.566406 113.816406 C 485.855469 113.4375 485.164062 113.023438 484.496094 112.578125 C 483.828125 112.128906 483.179688 111.648438 482.558594 111.140625 C 481.933594 110.628906 481.339844 110.085938 480.769531 109.519531 C 480.199219 108.949219 479.660156 108.351562 479.148438 107.730469 C 478.636719 107.105469 478.160156 106.460938 477.710938 105.789062 C 477.265625 105.121094 476.851562 104.429688 476.472656 103.71875 C 476.089844 103.007812 475.746094 102.28125 475.441406 101.539062 C 475.132812 100.792969 474.859375 100.035156 474.625 99.265625 C 474.394531 98.492188 474.199219 97.710938 474.039062 96.921875 C 473.882812 96.132812 473.765625 95.335938 473.6875 94.535156 C 473.605469 93.734375 473.566406 92.929688 473.566406 92.125 C 473.566406 91.316406 473.605469 90.515625 473.6875 89.710938 C 473.765625 88.910156 473.882812 88.113281 474.039062 87.324219 C 474.199219 86.535156 474.394531 85.753906 474.625 84.984375 C 474.859375 84.210938 475.132812 83.453125 475.441406 82.710938 C 475.746094 81.964844 476.089844 81.238281 476.472656 80.527344 C 476.851562 79.816406 477.265625 79.128906 477.710938 78.457031 C 478.160156 77.789062 478.636719 77.140625 479.148438 76.519531 C 479.660156 75.894531 480.199219 75.300781 480.769531 74.730469 C 481.339844 74.160156 481.933594 73.621094 482.558594 73.109375 C 483.179688 72.597656 483.828125 72.117188 484.496094 71.671875 C 485.164062 71.222656 485.855469 70.808594 486.566406 70.429688 C 487.277344 70.050781 488.003906 69.707031 488.746094 69.398438 C 489.492188 69.089844 490.25 68.816406 491.019531 68.582031 C 491.789062 68.351562 492.570312 68.15625 493.359375 67.996094 C 494.148438 67.839844 494.945312 67.722656 495.746094 67.644531 C 496.546875 67.5625 497.351562 67.523438 498.15625 67.523438 Z M 117.035156 276.617188 C 117.035156 274.601562 117.132812 272.59375 117.328125 270.589844 C 117.527344 268.582031 117.820312 266.59375 118.214844 264.617188 C 118.609375 262.644531 119.097656 260.691406 119.679688 258.765625 C 120.265625 256.835938 120.941406 254.941406 121.714844 253.082031 C 122.484375 251.222656 123.34375 249.402344 124.292969 247.625 C 125.242188 245.851562 126.273438 244.125 127.394531 242.449219 C 128.511719 240.773438 129.710938 239.160156 130.988281 237.601562 C 132.265625 236.046875 133.613281 234.554688 135.039062 233.128906 C 136.460938 231.707031 137.953125 230.355469 139.507812 229.078125 C 141.0625 227.800781 142.679688 226.601562 144.351562 225.484375 C 146.027344 224.363281 147.753906 223.328125 149.527344 222.378906 C 151.304688 221.429688 153.121094 220.570312 154.980469 219.800781 C 156.839844 219.027344 158.734375 218.351562 160.660156 217.765625 C 162.585938 217.183594 164.539062 216.691406 166.511719 216.300781 C 168.488281 215.90625 170.476562 215.613281 172.480469 215.414062 C 174.484375 215.21875 176.492188 215.117188 178.503906 215.117188 C 180.519531 215.117188 182.527344 215.21875 184.53125 215.414062 C 186.535156 215.613281 188.523438 215.90625 190.496094 216.300781 C 192.472656 216.691406 194.421875 217.183594 196.347656 217.765625 C 198.277344 218.351562 200.167969 219.027344 202.027344 219.800781 C 203.890625 220.570312 205.707031 221.429688 207.484375 222.378906 C 209.257812 223.328125 210.984375 224.363281 212.65625 225.484375 C 214.332031 226.601562 215.945312 227.800781 217.503906 229.078125 C 219.058594 230.355469 220.546875 231.707031 221.972656 233.128906 C 223.394531 234.554688 224.746094 236.046875 226.023438 237.601562 C 227.300781 239.160156 228.5 240.773438 229.617188 242.449219 C 230.734375 244.125 231.769531 245.851562 232.71875 247.625 C 233.667969 249.402344 234.527344 251.222656 235.296875 253.082031 C 236.066406 254.941406 236.746094 256.835938 237.328125 258.765625 C 237.914062 260.691406 238.402344 262.644531 238.796875 264.617188 C 239.1875 266.59375 239.484375 268.582031 239.679688 270.589844 C 239.878906 272.59375 239.976562 274.601562 239.976562 276.617188 C 239.976562 278.628906 239.878906 280.640625 239.679688 282.644531 C 239.484375 284.648438 239.1875 286.636719 238.796875 288.613281 C 238.402344 290.589844 237.914062 292.539062 237.328125 294.46875 C 236.746094 296.394531 236.066406 298.289062 235.296875 300.148438 C 234.527344 302.011719 233.667969 303.828125 232.71875 305.605469 C 231.769531 307.382812 230.734375 309.105469 229.617188 310.78125 C 228.5 312.457031 227.300781 314.074219 226.023438 315.628906 C 224.746094 317.1875 223.394531 318.675781 221.972656 320.101562 C 220.546875 321.523438 219.058594 322.875 217.503906 324.152344 C 215.945312 325.433594 214.332031 326.628906 212.65625 327.75 C 210.984375 328.867188 209.257812 329.902344 207.484375 330.851562 C 205.707031 331.800781 203.890625 332.660156 202.027344 333.433594 C 200.167969 334.203125 198.277344 334.878906 196.347656 335.464844 C 194.421875 336.050781 192.472656 336.539062 190.496094 336.929688 C 188.523438 337.324219 186.535156 337.621094 184.53125 337.816406 C 182.527344 338.015625 180.519531 338.113281 178.503906 338.113281 C 176.492188 338.113281 174.484375 338.015625 172.480469 337.816406 C 170.476562 337.621094 168.488281 337.324219 166.511719 336.929688 C 164.539062 336.539062 162.585938 336.050781 160.660156 335.464844 C 158.734375 334.878906 156.839844 334.203125 154.980469 333.433594 C 153.121094 332.660156 151.304688 331.800781 149.527344 330.851562 C 147.753906 329.902344 146.027344 328.867188 144.351562 327.75 C 142.679688 326.628906 141.0625 325.433594 139.507812 324.152344 C 137.953125 322.875 136.460938 321.523438 135.039062 320.101562 C 133.613281 318.675781 132.265625 317.1875 130.988281 315.628906 C 129.710938 314.074219 128.511719 312.457031 127.394531 310.78125 C 126.273438 309.105469 125.242188 307.382812 124.292969 305.605469 C 123.34375 303.828125 122.484375 302.011719 121.714844 300.148438 C 120.941406 298.289062 120.265625 296.394531 119.679688 294.46875 C 119.097656 292.539062 118.609375 290.589844 118.214844 288.613281 C 117.820312 286.636719 117.527344 284.648438 117.328125 282.644531 C 117.132812 280.640625 117.035156 278.628906 117.035156 276.617188 Z M 547.332031 534.90625 C 546.125 534.90625 544.921875 534.847656 543.71875 534.726562 C 542.515625 534.609375 541.324219 534.433594 540.136719 534.195312 C 538.953125 533.960938 537.78125 533.667969 536.628906 533.316406 C 535.472656 532.964844 534.335938 532.558594 533.21875 532.097656 C 532.101562 531.632812 531.011719 531.117188 529.945312 530.546875 C 528.882812 529.976562 527.847656 529.359375 526.84375 528.6875 C 525.839844 528.015625 524.867188 527.296875 523.933594 526.53125 C 523 525.761719 522.109375 524.953125 521.253906 524.097656 C 520.398438 523.242188 519.589844 522.347656 518.824219 521.414062 C 518.054688 520.480469 517.335938 519.511719 516.667969 518.507812 C 515.996094 517.5 515.375 516.464844 514.804688 515.402344 C 514.238281 514.335938 513.71875 513.242188 513.257812 512.128906 C 512.796875 511.011719 512.390625 509.875 512.039062 508.71875 C 511.6875 507.5625 511.394531 506.390625 511.160156 505.207031 C 510.921875 504.019531 510.746094 502.824219 510.628906 501.625 C 510.511719 500.421875 510.449219 499.214844 510.449219 498.007812 C 510.449219 496.796875 510.511719 495.59375 510.628906 494.390625 C 510.746094 493.1875 510.921875 491.992188 511.160156 490.808594 C 511.394531 489.621094 511.6875 488.453125 512.039062 487.296875 C 512.390625 486.140625 512.796875 485.003906 513.257812 483.886719 C 513.71875 482.769531 514.238281 481.679688 514.804688 480.613281 C 515.375 479.546875 515.996094 478.511719 516.667969 477.507812 C 517.335938 476.503906 518.054688 475.53125 518.824219 474.597656 C 519.589844 473.664062 520.398438 472.769531 521.253906 471.914062 C 522.109375 471.0625 523 470.25 523.933594 469.484375 C 524.867188 468.71875 525.839844 467.996094 526.84375 467.328125 C 527.847656 466.65625 528.882812 466.035156 529.945312 465.464844 C 531.011719 464.894531 532.101562 464.378906 533.21875 463.917969 C 534.335938 463.453125 535.472656 463.046875 536.628906 462.695312 C 537.78125 462.347656 538.953125 462.054688 540.136719 461.816406 C 541.324219 461.582031 542.515625 461.402344 543.71875 461.285156 C 544.921875 461.167969 546.125 461.109375 547.332031 461.109375 C 548.542969 461.109375 549.746094 461.167969 550.949219 461.285156 C 552.152344 461.402344 553.34375 461.582031 554.527344 461.816406 C 555.714844 462.054688 556.882812 462.347656 558.039062 462.695312 C 559.195312 463.046875 560.332031 463.453125 561.449219 463.917969 C 562.5625 464.378906 563.65625 464.894531 564.71875 465.464844 C 565.785156 466.035156 566.820312 466.65625 567.824219 467.328125 C 568.828125 467.996094 569.796875 468.71875 570.730469 469.484375 C 571.664062 470.25 572.558594 471.0625 573.414062 471.914062 C 574.269531 472.769531 575.078125 473.664062 575.84375 474.597656 C 576.609375 475.53125 577.328125 476.503906 578 477.507812 C 578.671875 478.511719 579.292969 479.546875 579.863281 480.613281 C 580.429688 481.679688 580.945312 482.769531 581.410156 483.886719 C 581.871094 485.003906 582.277344 486.140625 582.628906 487.296875 C 582.980469 488.453125 583.273438 489.621094 583.507812 490.808594 C 583.742188 491.992188 583.921875 493.1875 584.039062 494.390625 C 584.15625 495.59375 584.214844 496.796875 584.214844 498.007812 C 584.214844 499.214844 584.15625 500.421875 584.039062 501.625 C 583.921875 502.824219 583.742188 504.019531 583.507812 505.207031 C 583.273438 506.390625 582.980469 507.5625 582.628906 508.71875 C 582.277344 509.875 581.871094 511.011719 581.410156 512.128906 C 580.945312 513.242188 580.429688 514.335938 579.863281 515.402344 C 579.292969 516.464844 578.671875 517.5 578 518.507812 C 577.328125 519.511719 576.609375 520.480469 575.84375 521.414062 C 575.078125 522.347656 574.269531 523.242188 573.414062 524.097656 C 572.558594 524.953125 571.664062 525.761719 570.730469 526.53125 C 569.796875 527.296875 568.828125 528.015625 567.824219 528.6875 C 566.820312 529.359375 565.785156 529.976562 564.71875 530.546875 C 563.65625 531.117188 562.5625 531.632812 561.449219 532.097656 C 560.332031 532.558594 559.195312 532.964844 558.039062 533.316406 C 556.882812 533.667969 555.714844 533.960938 554.527344 534.195312 C 553.34375 534.433594 552.152344 534.609375 550.949219 534.726562 C 549.746094 534.847656 548.542969 534.90625 547.332031 534.90625 Z M 547.332031 534.90625"/></svg>