<svg xmlns="http://www.w3.org/2000/svg" width="705" viewBox="0 0 705 591" height="591" version="1.0"><defs><clipPath id="a"><path d="M 88.609375 229 L 322 229 L 322 589.734375 L 88.609375 589.734375 Z M 88.609375 229"/></clipPath><clipPath id="b"><path d="M 383 229 L 616.277344 229 L 616.277344 589.734375 L 383 589.734375 Z M 383 229"/></clipPath><clipPath id="c"><path d="M 88.609375 360.011719 L 616.277344 360.011719 L 616.277344 589.734375 L 88.609375 589.734375 Z M 88.609375 360.011719"/></clipPath><clipPath id="d"><path d="M 88.609375 147 L 616.277344 147 L 616.277344 423 L 88.609375 423 Z M 88.609375 147"/></clipPath></defs><g clip-path="url(#a)"><path d="M 114.8125 269.808594 L 114.8125 549.234375 L 287.4375 409.511719 Z M 88.609375 576.632812 L 88.609375 242.519531 C 88.609375 229.15625 102.21875 226.007812 111.664062 233.65625 L 315.570312 398.695312 C 322.75 403.589844 323.292969 414.140625 316.433594 419.707031 L 110.726562 586.136719 C 102.5 593.949219 88.609375 588.214844 88.609375 576.632812"/></g><g clip-path="url(#b)"><path d="M 417.429688 409.511719 L 590.054688 549.234375 L 590.054688 269.808594 Z M 594.910156 586.773438 L 389.296875 420.34375 C 379.15625 413.429688 383.316406 403.53125 391.359375 397.027344 L 594.140625 232.886719 C 602.367188 225.089844 616.257812 230.804688 616.257812 242.386719 L 616.257812 576.519531 C 616.257812 587.558594 603.53125 593.761719 594.910156 586.773438"/></g><g clip-path="url(#c)"><path d="M 352.441406 390.507812 L 138.65625 563.53125 L 566.210938 563.53125 Z M 360.671875 363.519531 L 610.558594 565.835938 C 621.039062 573.035156 616.054688 589.734375 603.15625 589.734375 L 101.710938 589.734375 C 89.527344 589.734375 83.847656 574.273438 93.5 566.476562 L 343.390625 364.210938 C 348.152344 359.675781 355.574219 359.394531 360.671875 363.519531"/></g><g clip-path="url(#d)"><path d="M 489.132812 317.882812 C 481.988281 290.105469 488.71875 195.683594 488.71875 160.375 C 488.699219 149.539062 501.410156 143.207031 510.070312 150.195312 L 610.542969 231.574219 C 617.722656 236.464844 618.246094 247 611.367188 252.546875 L 405.714844 418.996094 C 401.03125 423.492188 393.625 423.886719 388.433594 419.707031 L 352.441406 390.507812 L 317.238281 418.996094 C 312.535156 423.472656 305.128906 423.867188 299.9375 419.648438 L 94.324219 253.222656 C 87.144531 248.328125 86.601562 237.777344 93.464844 232.210938 L 191.40625 152.988281 C 199.652344 145.191406 213.523438 150.910156 213.523438 162.492188 L 213.523438 305.773438 C 213.523438 308.921875 213.785156 312.988281 213.449219 316.042969 L 308.1875 392.71875 L 344.195312 363.519531 C 349.292969 359.394531 356.71875 359.675781 361.476562 364.210938 L 396.679688 392.71875 Z M 187.320312 294.882812 L 187.320312 189.910156 L 122.460938 242.386719 Z M 514.925781 297.003906 L 582.386719 242.386719 L 514.925781 187.792969 Z M 514.925781 297.003906"/></g><path d="M 501.820312 327.703125 C 509.058594 327.703125 514.925781 321.835938 514.925781 314.601562 L 514.925781 13.265625 C 514.925781 6.03125 509.058594 0.167969 501.820312 0.167969 L 200.441406 0.167969 C 193.203125 0.167969 187.335938 6.03125 187.335938 13.265625 L 187.335938 314.113281 C 187.335938 321.609375 192.773438 327.703125 200.441406 327.703125 C 207.675781 327.703125 213.542969 321.835938 213.542969 314.601562 L 213.542969 26.367188 L 488.71875 26.367188 L 488.71875 160.375 C 488.71875 183.089844 476.722656 327.703125 501.820312 327.703125"/><path d="M 345.414062 110.820312 L 383.785156 132.953125 C 392.875 138.203125 392.386719 151.507812 382.976562 156.0625 L 344.644531 178.179688 C 335.929688 183.238281 324.886719 176.847656 325 166.746094 L 325 121.691406 C 325 111.101562 336.867188 105.046875 345.414062 110.820312"/><path d="M 265.953125 196.695312 L 436.308594 196.695312 L 436.308594 91.871094 L 265.953125 91.871094 Z M 449.410156 222.898438 L 252.832031 222.898438 C 245.617188 222.898438 239.730469 217.03125 239.730469 209.796875 L 239.730469 78.769531 C 239.730469 71.535156 245.617188 65.667969 252.832031 65.667969 L 449.410156 65.667969 C 456.644531 65.667969 462.511719 71.535156 462.511719 78.769531 L 462.511719 209.796875 C 462.511719 217.03125 456.644531 222.898438 449.410156 222.898438"/><path d="M 252.832031 235.980469 C 245.617188 235.980469 239.730469 241.863281 239.730469 249.097656 C 239.730469 256.332031 245.617188 262.199219 252.832031 262.199219 L 449.410156 262.199219 C 456.644531 262.199219 462.511719 256.332031 462.511719 249.097656 C 462.511719 241.863281 456.644531 235.980469 449.410156 235.980469 L 252.832031 235.980469"/><path d="M 252.832031 275.300781 C 245.617188 275.300781 239.730469 281.164062 239.730469 288.398438 C 239.730469 295.632812 245.617188 301.5 252.832031 301.5 L 449.410156 301.5 C 456.644531 301.5 462.511719 295.632812 462.511719 288.398438 C 462.511719 281.164062 456.644531 275.300781 449.410156 275.300781 L 252.832031 275.300781"/><path d="M 292.160156 314.601562 C 284.921875 314.601562 279.058594 320.46875 279.058594 327.703125 C 279.058594 334.9375 284.921875 340.800781 292.160156 340.800781 L 383.878906 340.800781 C 391.113281 340.800781 396.980469 334.9375 396.980469 327.703125 C 396.980469 320.46875 391.113281 314.601562 383.878906 314.601562 L 292.160156 314.601562"/></svg>