<svg width="18" height="16" viewBox="0 0 18 16" fill="none" xmlns="http://www.w3.org/2000/svg">
<path d="M16.7143 6.3125H10.9286V1.25C10.9286 0.628789 10.3528 0.125 9.64286 0.125H8.35714C7.64719 0.125 7.07143 0.628789 7.07143 1.25V6.3125H1.28571C0.575759 6.3125 0 6.81629 0 7.4375V8.5625C0 9.18371 0.575759 9.6875 1.28571 9.6875H7.07143V14.75C7.07143 15.3712 7.64719 15.875 8.35714 15.875H9.64286C10.3528 15.875 10.9286 15.3712 10.9286 14.75V9.6875H16.7143C17.4242 9.6875 18 9.18371 18 8.5625V7.4375C18 6.81629 17.4242 6.3125 16.7143 6.3125Z" fill="#FFFEFE"/>
</svg>
