<svg xmlns="http://www.w3.org/2000/svg" width="705" viewBox="0 0 705 591" height="591" version="1.0"><defs><clipPath id="a"><path d="M 52.390625 0 L 634.15625 0 L 634.15625 581.765625 L 52.390625 581.765625 Z M 52.390625 0"/></clipPath></defs><g clip-path="url(#a)"><path fill="#100F0D" d="M 539.632812 337.910156 L 390.300781 337.910156 L 390.300781 487.242188 L 296.347656 487.242188 L 296.347656 337.910156 L 147.015625 337.910156 L 147.015625 243.960938 L 296.347656 243.960938 L 296.347656 94.625 L 390.300781 94.625 L 390.300781 243.960938 L 539.632812 243.960938 Z M 343.324219 0.0195312 C 182.65625 0.0195312 52.410156 130.269531 52.410156 290.933594 C 52.410156 451.601562 182.65625 581.84375 343.324219 581.84375 C 503.988281 581.84375 634.234375 451.601562 634.234375 290.933594 C 634.234375 130.269531 503.988281 0.0195312 343.324219 0.0195312"/></g></svg>