<svg width="48" height="48" viewBox="0 0 48 48" fill="none" xmlns="http://www.w3.org/2000/svg">
<path d="M18 27C12.0448 33.6996 9.41443 39.845 8.45882 42.5489C8.21884 43.2279 8.79412 43.8677 9.50449 43.7493L13.1559 43.1407C13.695 43.0508 14.2474 43.1855 14.6847 43.5135L16.8901 45.1675C17.4361 45.5771 18.229 45.3385 18.4656 44.6983C19.2069 42.6928 20.8985 38.3367 24 31.4002C27.1015 38.3367 28.7932 42.6928 29.5344 44.6983C29.7711 45.3385 30.5639 45.5771 31.11 45.1675L33.3154 43.5135C33.7526 43.1855 34.3051 43.0508 34.8442 43.1407L38.4956 43.7493C39.2059 43.8677 39.7812 43.2279 39.5412 42.5489C38.5856 39.845 35.9552 33.6996 30 27H18Z" fill="#576684"/>
<path d="M20.4551 3.59593C22.5657 2.05036 25.4343 2.05036 27.5449 3.59593L28.7066 4.44662C28.8785 4.57253 29.0862 4.64022 29.2993 4.63982L30.7426 4.63706C33.3529 4.63207 35.667 6.3153 36.4661 8.80029L36.915 10.1963C36.9799 10.3984 37.1075 10.5745 37.2792 10.6992L38.4701 11.5644C40.5746 13.0932 41.4543 15.8039 40.6486 18.2771L40.1883 19.6903C40.1227 19.8916 40.1227 20.1085 40.1883 20.3097L40.6486 21.7229C41.4543 24.1961 40.5746 26.9068 38.4701 28.4356L37.2792 29.3008C37.1075 29.4255 36.9799 29.6016 36.915 29.8037L36.4661 31.1997C35.667 33.6847 33.3529 35.3679 30.7426 35.363L29.2993 35.3602C29.0862 35.3598 28.8785 35.4275 28.7066 35.5534L27.5449 36.4041C25.4343 37.9496 22.5657 37.9496 20.4551 36.4041L19.2934 35.5534C19.1215 35.4275 18.9138 35.3598 18.7007 35.3602L17.2574 35.363C14.6471 35.3679 12.333 33.6847 11.534 31.1997L11.085 29.8037C11.0201 29.6016 10.8925 29.4255 10.7208 29.3008L9.52989 28.4356C7.42542 26.9068 6.54571 24.1961 7.35139 21.7229L7.81173 20.3097C7.8773 20.1085 7.8773 19.8916 7.81173 19.6903L7.35139 18.2771C6.54571 15.8039 7.42542 13.0932 9.52988 11.5644L10.7208 10.6992C10.8925 10.5745 11.0201 10.3984 11.085 10.1963L11.534 8.80029C12.333 6.3153 14.6471 4.63207 17.2574 4.63706L18.7007 4.63982C18.9138 4.64022 19.1215 4.57253 19.2934 4.44662L20.4551 3.59593Z" fill="#ACB4C9"/>
<path d="M22.2525 10.0681C22.9871 8.64395 25.0129 8.64395 25.7475 10.0681L27.869 14.1812L32.41 15.0803C33.9092 15.3771 34.5152 17.2036 33.4935 18.3462L30.2601 21.9624L30.8506 26.7743C31.043 28.3415 29.4227 29.4932 28.0177 28.788L24 26.7714L19.9823 28.788C18.5773 29.4932 16.957 28.3415 17.1494 26.7743L17.7399 21.9624L14.5065 18.3462C13.4848 17.2036 14.0908 15.3771 15.59 15.0803L20.131 14.1812L22.2525 10.0681Z" fill="#576684"/>
</svg>
