<svg xmlns="http://www.w3.org/2000/svg" width="705" viewBox="0 0 705 591" height="591" version="1.0"><defs><clipPath id="a"><path d="M 2 32 L 704 32 L 704 558.5 L 2 558.5 Z M 2 32"/></clipPath></defs><g clip-path="url(#a)"><path fill="#100F0D" d="M 680.402344 348.125 L 645.332031 348.125 L 645.332031 207.875 L 680.402344 207.875 Z M 134.308594 516.363281 L 114.171875 454.269531 C 113.214844 451.304688 111.113281 448.839844 108.375 447.421875 C 105.589844 446.054688 102.347656 445.824219 99.421875 446.738281 L 37.867188 466.828125 L 121.617188 307.949219 C 140.613281 325.34375 163.855469 337.761719 188.925781 343.832031 L 205.546875 376.476562 Z M 389.433594 62.097656 L 453.453125 126.0625 L 416.375 126.0625 L 396.417969 106.109375 C 384.546875 94.242188 382.21875 76.296875 389.433594 62.097656 Z M 692.089844 184.5 L 633.640625 184.5 C 627.203125 184.5 621.953125 189.75 621.953125 196.1875 L 621.953125 219.5625 L 613.550781 219.5625 C 599.164062 219.5625 585.421875 214.3125 574.78125 204.722656 L 509.4375 146.878906 C 506.515625 144.230469 503.410156 141.902344 500.394531 139.941406 L 396.417969 35.984375 C 391.851562 31.417969 384.457031 31.417969 379.890625 35.984375 C 356.007812 59.863281 356.007812 98.761719 379.890625 122.636719 L 388.152344 130.902344 L 388.152344 149.4375 L 455.003906 149.4375 C 466.332031 149.4375 477.199219 152.679688 486.742188 158.933594 C 489.160156 160.394531 491.492188 162.175781 493.773438 164.273438 L 559.210938 222.164062 C 574.097656 235.539062 593.367188 242.9375 613.550781 242.9375 L 621.953125 242.9375 L 621.953125 324.75 C 583.6875 324.476562 545.511719 318.769531 508.386719 307.71875 C 468.292969 295.757812 426.96875 289.6875 385.597656 289.6875 L 332.488281 289.6875 L 332.078125 288.957031 C 333.859375 284.34375 336.507812 280.097656 339.980469 276.585938 C 344.042969 272.519531 349.066406 269.460938 354.546875 267.820312 C 357.878906 266.8125 361.347656 266.3125 364.773438 266.3125 L 423.222656 266.3125 C 449.023438 266.3125 469.984375 245.355469 469.984375 219.5625 C 469.984375 207.097656 465.144531 195.363281 456.285156 186.507812 C 447.425781 177.652344 435.691406 172.8125 423.222656 172.8125 L 399.84375 172.8125 L 399.84375 196.1875 L 423.222656 196.1875 C 429.433594 196.1875 435.324219 198.605469 439.753906 203.035156 C 444.183594 207.464844 446.601562 213.351562 446.601562 219.5625 C 446.601562 232.4375 436.101562 242.9375 423.222656 242.9375 L 364.773438 242.9375 C 359.066406 242.9375 353.402344 243.757812 347.832031 245.449219 C 338.65625 248.1875 330.207031 253.253906 323.359375 260.101562 C 315.914062 267.679688 310.664062 277.039062 308.058594 287.265625 C 306.871094 292.105469 306.324219 296.535156 306.324219 301.375 C 306.324219 307.8125 311.578125 313.0625 318.015625 313.0625 L 318.335938 313.0625 L 399.480469 466.828125 L 337.878906 446.738281 C 334.957031 445.824219 331.714844 446.054688 328.929688 447.421875 C 326.1875 448.839844 324.089844 451.304688 323.128906 454.269531 L 302.992188 516.363281 L 217.144531 347.757812 C 219.609375 347.894531 222.03125 348.125 224.496094 348.125 C 251.253906 348.125 277.511719 341.140625 300.480469 327.855469 L 288.789062 307.628906 C 262.121094 323.015625 229.472656 328.265625 199.199219 322.285156 C 171.527344 316.761719 146.089844 301.96875 127.507812 280.691406 C 107.140625 257.453125 95.90625 227.414062 95.90625 196.1875 C 95.90625 125.285156 153.582031 67.625 224.496094 67.625 C 275.640625 67.625 321.894531 97.847656 342.398438 144.6875 C 348.015625 157.515625 351.484375 171.214844 352.671875 185.59375 C 352.992188 189.066406 353.085938 192.578125 353.085938 196.1875 C 353.085938 207.050781 351.714844 217.871094 349.019531 228.328125 L 371.667969 234.171875 C 374.867188 221.796875 376.464844 209.015625 376.464844 196.1875 C 376.464844 191.847656 376.328125 187.648438 375.960938 183.539062 C 374.59375 166.695312 370.480469 150.441406 363.769531 135.285156 C 339.613281 79.996094 284.910156 44.25 224.496094 44.25 C 140.703125 44.25 72.527344 112.410156 72.527344 196.1875 C 72.527344 230.335938 84.035156 263.207031 104.8125 289.734375 L 3.710938 481.4375 C 1.519531 485.636719 2.070312 490.75 5.128906 494.402344 C 8.234375 498.054688 13.210938 499.46875 17.683594 497.960938 L 95.542969 472.625 L 120.792969 550.417969 C 122.253906 554.9375 126.273438 558.089844 131.023438 558.453125 L 131.9375 558.5 C 136.273438 558.5 140.335938 556.082031 142.300781 552.109375 L 218.652344 402.269531 L 295 552.109375 C 296.964844 556.082031 301.027344 558.5 305.367188 558.5 L 306.28125 558.453125 C 311.027344 558.089844 315.046875 554.9375 316.507812 550.417969 L 341.761719 472.625 L 419.617188 497.960938 C 424.136719 499.46875 429.113281 498.054688 432.171875 494.402344 C 435.234375 490.75 435.78125 485.636719 433.589844 481.4375 L 344.863281 313.0625 L 385.597656 313.0625 C 424.730469 313.0625 463.773438 318.769531 501.71875 330.089844 C 540.988281 341.824219 581.402344 347.757812 621.953125 348.035156 L 621.953125 359.8125 C 621.953125 366.25 627.203125 371.5 633.640625 371.5 L 692.089844 371.5 C 698.53125 371.5 703.78125 366.25 703.78125 359.8125 L 703.78125 196.1875 C 703.78125 189.75 698.53125 184.5 692.089844 184.5"/></g><path fill="#100F0D" d="M 224.496094 278 C 179.378906 278 142.667969 241.292969 142.667969 196.1875 C 142.667969 151.078125 179.378906 114.375 224.496094 114.375 C 269.613281 114.375 306.324219 151.078125 306.324219 196.1875 C 306.324219 241.292969 269.613281 278 224.496094 278 Z M 224.496094 91 C 166.457031 91 119.285156 138.160156 119.285156 196.1875 C 119.285156 254.214844 166.457031 301.375 224.496094 301.375 C 282.535156 301.375 329.703125 254.214844 329.703125 196.1875 C 329.703125 138.160156 282.535156 91 224.496094 91"/></svg>