<svg xmlns="http://www.w3.org/2000/svg" width="705" viewBox="0 0 705 591" height="591" version="1.0"><defs><clipPath id="a"><path d="M 238 11.65625 L 465 11.65625 L 465 238 L 238 238 Z M 238 11.65625"/></clipPath><clipPath id="b"><path d="M 148 262 L 555 262 L 555 575.453125 L 148 575.453125 Z M 148 262"/></clipPath></defs><g clip-path="url(#a)"><path d="M 464.34375 124.414062 C 464.34375 62.234375 413.742188 11.65625 351.535156 11.65625 C 289.328125 11.65625 238.726562 62.234375 238.726562 124.414062 C 238.726562 186.59375 289.328125 237.175781 351.535156 237.175781 C 413.742188 237.175781 464.34375 186.59375 464.34375 124.414062 Z M 276.328125 124.414062 C 276.328125 82.964844 310.058594 49.242188 351.535156 49.242188 C 393.011719 49.242188 426.742188 82.964844 426.742188 124.414062 C 426.742188 165.863281 393.011719 199.585938 351.535156 199.585938 C 310.058594 199.585938 276.328125 165.863281 276.328125 124.414062 Z M 276.328125 124.414062"/></g><g clip-path="url(#b)"><path d="M 148.722656 465.261719 L 148.722656 519.070312 C 148.722656 550.160156 174.023438 575.453125 205.125 575.453125 L 497.945312 575.453125 C 529.046875 575.453125 554.351562 550.160156 554.351562 519.070312 L 554.351562 465.261719 C 554.351562 353.476562 463.371094 262.539062 351.535156 262.539062 C 239.699219 262.539062 148.722656 353.476562 148.722656 465.261719 Z M 351.535156 300.125 C 442.640625 300.125 516.746094 374.203125 516.746094 465.261719 L 516.746094 519.070312 C 516.746094 529.433594 508.320312 537.863281 497.945312 537.863281 L 205.125 537.863281 C 194.75 537.863281 186.324219 529.433594 186.324219 519.070312 L 186.324219 465.261719 C 186.324219 374.203125 260.429688 300.125 351.535156 300.125 Z M 351.535156 300.125"/></g></svg>