<svg xmlns="http://www.w3.org/2000/svg" width="705" viewBox="0 0 705 591" height="591" version="1.0"><defs><clipPath id="a"><path d="M 143.316406 0 L 561.859375 0 L 561.859375 590 L 143.316406 590 Z M 143.316406 0"/></clipPath></defs><g clip-path="url(#a)"><path d="M 526.59375 331.59375 L 526.59375 311.949219 C 536.65625 308.386719 543.886719 298.777344 543.886719 287.511719 C 543.886719 276.246094 536.65625 266.636719 526.59375 263.070312 L 526.59375 235.65625 C 526.59375 230.882812 522.722656 227.011719 517.949219 227.011719 L 415.242188 227.011719 C 450.914062 205.65625 474.847656 166.644531 474.847656 122.148438 C 474.847656 54.796875 420.027344 0 352.644531 0 C 285.253906 0 230.441406 54.796875 230.441406 122.148438 C 230.441406 166.644531 254.367188 205.65625 290.039062 227.011719 L 187.074219 227.011719 C 182.300781 227.011719 178.429688 230.882812 178.429688 235.65625 L 178.429688 263.070312 C 168.367188 266.636719 161.136719 276.246094 161.136719 287.511719 C 161.136719 298.777344 168.367188 308.386719 178.429688 311.949219 L 178.429688 331.59375 C 158.722656 335.609375 143.84375 353.066406 143.84375 373.9375 L 143.84375 546.789062 C 143.84375 570.617188 163.238281 590 187.074219 590 L 517.949219 590 C 541.785156 590 561.179688 570.617188 561.179688 546.789062 L 561.179688 373.9375 C 561.179688 353.066406 546.300781 335.609375 526.59375 331.59375 Z M 247.734375 122.148438 C 247.734375 64.328125 294.789062 17.285156 352.644531 17.285156 C 410.492188 17.285156 457.554688 64.328125 457.554688 122.148438 C 457.554688 179.96875 410.492188 227.011719 352.644531 227.011719 C 294.789062 227.011719 247.734375 179.96875 247.734375 122.148438 Z M 509.300781 261.582031 L 195.722656 261.582031 L 195.722656 244.296875 L 509.300781 244.296875 Z M 187.074219 278.867188 L 517.949219 278.867188 C 522.714844 278.867188 526.59375 282.746094 526.59375 287.511719 C 526.59375 292.277344 522.714844 296.152344 517.949219 296.152344 L 187.074219 296.152344 C 182.308594 296.152344 178.429688 292.277344 178.429688 287.511719 C 178.429688 282.746094 182.308594 278.867188 187.074219 278.867188 Z M 517.949219 572.714844 L 187.074219 572.714844 C 172.773438 572.714844 161.136719 561.085938 161.136719 546.789062 L 161.136719 529.480469 C 168.367188 534.917969 177.347656 538.144531 187.074219 538.144531 L 517.949219 538.144531 C 527.675781 538.144531 536.65625 534.917969 543.886719 529.480469 L 543.886719 546.789062 C 543.886719 561.085938 532.25 572.714844 517.949219 572.714844 Z M 517.949219 520.859375 L 187.074219 520.859375 C 172.773438 520.859375 161.136719 509.230469 161.136719 494.933594 L 161.136719 373.9375 C 161.136719 359.640625 172.773438 348.007812 187.074219 348.007812 C 191.847656 348.007812 195.722656 344.136719 195.722656 339.367188 L 195.722656 313.4375 L 509.300781 313.4375 L 509.300781 330.722656 L 221.660156 330.722656 C 216.886719 330.722656 213.015625 334.59375 213.015625 339.367188 C 213.015625 344.136719 216.886719 348.007812 221.660156 348.007812 L 517.949219 348.007812 C 532.25 348.007812 543.886719 359.640625 543.886719 373.9375 L 543.886719 494.933594 C 543.886719 509.230469 532.25 520.859375 517.949219 520.859375 Z M 517.949219 520.859375"/></g><path d="M 352.644531 69.140625 C 338.335938 69.140625 326.703125 80.773438 326.703125 95.070312 L 326.703125 149.230469 C 326.703125 163.523438 338.335938 175.15625 352.644531 175.15625 C 366.945312 175.15625 378.582031 163.523438 378.582031 149.230469 L 378.582031 95.070312 C 378.582031 80.773438 366.945312 69.140625 352.644531 69.140625 Z M 361.289062 149.230469 C 361.289062 153.996094 357.410156 157.871094 352.644531 157.871094 C 347.871094 157.871094 343.996094 153.996094 343.996094 149.230469 L 343.996094 95.070312 C 343.996094 90.304688 347.871094 86.425781 352.644531 86.425781 C 357.410156 86.425781 361.289062 90.304688 361.289062 95.070312 Z M 361.289062 149.230469"/><path d="M 352.644531 34.570312 C 304.324219 34.570312 265.027344 73.859375 265.027344 122.148438 C 265.027344 170.4375 304.324219 209.726562 352.644531 209.726562 C 400.957031 209.726562 440.261719 170.4375 440.261719 122.148438 C 440.261719 73.859375 400.957031 34.570312 352.644531 34.570312 Z M 352.644531 192.441406 C 313.859375 192.441406 282.320312 160.910156 282.320312 122.148438 C 282.320312 83.390625 313.859375 51.855469 352.644531 51.855469 C 391.421875 51.855469 422.96875 83.390625 422.96875 122.148438 C 422.96875 160.910156 391.421875 192.441406 352.644531 192.441406 Z M 352.644531 192.441406"/></svg>