<svg width="14" height="14" viewBox="0 0 14 14" fill="none" xmlns="http://www.w3.org/2000/svg">
<path d="M6.99967 0.166626C7.5531 0.16659 8.08556 0.378329 8.48783 0.758407C8.8901 1.13849 9.13168 1.65809 9.16301 2.21063L9.16634 2.33329H12.6663C12.793 2.33333 12.915 2.38146 13.0075 2.46794C13.1001 2.55443 13.1564 2.67283 13.165 2.79921C13.1737 2.9256 13.134 3.05055 13.0541 3.14883C12.9741 3.2471 12.8598 3.31136 12.7343 3.32863L12.6663 3.33329H12.1357L11.2823 12.0133C11.2396 12.446 11.0444 12.8495 10.7317 13.1516C10.4189 13.4537 10.009 13.6348 9.57501 13.6626L9.45767 13.6666H4.54167C4.10665 13.6666 3.6858 13.5119 3.35435 13.2302C3.02289 12.9484 2.80242 12.558 2.73234 12.1286L2.71701 12.0126L1.86301 3.33329H1.33301C1.21218 3.33329 1.09545 3.28953 1.00439 3.21011C0.913328 3.1307 0.854107 3.021 0.837674 2.90129L0.833008 2.83329C0.833013 2.71247 0.87677 2.59573 0.956186 2.50467C1.0356 2.41361 1.14531 2.35439 1.26501 2.33796L1.33301 2.33329H4.83301C4.83301 1.75866 5.06128 1.20756 5.46761 0.801228C5.87394 0.394899 6.42504 0.166626 6.99967 0.166626ZM11.131 3.33329H2.86767L3.71234 11.9146C3.73104 12.1061 3.81542 12.2852 3.95116 12.4215C4.08689 12.5579 4.26562 12.6431 4.45701 12.6626L4.54167 12.6666H9.45767C9.85767 12.6666 10.197 12.3833 10.2743 11.9986L10.2877 11.9146L11.1303 3.33329H11.131ZM8.16634 5.16663C8.28717 5.16663 8.4039 5.21039 8.49496 5.2898C8.58602 5.36922 8.64524 5.47892 8.66167 5.59863L8.66634 5.66663V10.3333C8.6663 10.46 8.61818 10.5819 8.53169 10.6745C8.44521 10.7671 8.32681 10.8233 8.20042 10.832C8.07403 10.8406 7.94908 10.801 7.85081 10.721C7.75254 10.6411 7.68828 10.5268 7.67101 10.4013L7.66634 10.3333V5.66663C7.66634 5.53402 7.71902 5.40684 7.81279 5.31307C7.90656 5.21931 8.03373 5.16663 8.16634 5.16663ZM5.83301 5.16663C5.95383 5.16663 6.07057 5.21039 6.16163 5.2898C6.25269 5.36922 6.31191 5.47892 6.32834 5.59863L6.33301 5.66663V10.3333C6.33297 10.46 6.28484 10.5819 6.19836 10.6745C6.11187 10.7671 5.99348 10.8233 5.86709 10.832C5.7407 10.8406 5.61575 10.801 5.51748 10.721C5.4192 10.6411 5.35494 10.5268 5.33767 10.4013L5.33301 10.3333V5.66663C5.33301 5.53402 5.38569 5.40684 5.47945 5.31307C5.57322 5.21931 5.7004 5.16663 5.83301 5.16663ZM6.99967 1.16663C6.70688 1.16664 6.4248 1.27674 6.20941 1.47508C5.99403 1.67342 5.8611 1.94549 5.83701 2.23729L5.83301 2.33329H8.16634C8.16634 2.02387 8.04343 1.72713 7.82463 1.50833C7.60584 1.28954 7.30909 1.16663 6.99967 1.16663Z" fill="#5C5C5C"/>
</svg>
