<svg width="16" height="10" viewBox="0 0 16 10" fill="none" xmlns="http://www.w3.org/2000/svg">
<path d="M8.6648 0.474609H1.67598C0.754189 0.474609 0 1.2288 0 2.15059V7.79863C0 8.72042 0.754189 9.47461 1.67598 9.47461H8.6648C9.58658 9.47461 10.3408 8.72042 10.3408 7.79863V2.15059C10.3408 1.21204 9.58658 0.474609 8.6648 0.474609Z" fill="#999CA0"/>
<path d="M14.0772 1.3976C13.9766 1.41436 13.8761 1.46464 13.7923 1.51492L11.1777 3.0233V6.91158L13.809 8.41996C14.295 8.70488 14.8984 8.53728 15.1833 8.05125C15.2671 7.90041 15.3174 7.73281 15.3174 7.54845V2.36967C15.3174 1.74956 14.7308 1.24676 14.0772 1.3976Z" fill="#999CA0"/>
</svg>
