<svg xmlns="http://www.w3.org/2000/svg" width="705" viewBox="0 0 705 591" height="591" version="1.0"><defs><clipPath id="a"><path d="M 375 18 L 608.578125 18 L 608.578125 159 L 375 159 Z M 375 18"/></clipPath></defs><path d="M 328.757812 228.390625 C 328.757812 229.921875 328.683594 231.445312 328.535156 232.96875 C 328.382812 234.496094 328.160156 236.007812 327.859375 237.507812 C 327.5625 239.007812 327.191406 240.492188 326.746094 241.957031 C 326.304688 243.421875 325.789062 244.863281 325.203125 246.277344 C 324.617188 247.691406 323.964844 249.074219 323.242188 250.421875 C 322.519531 251.773438 321.734375 253.085938 320.886719 254.359375 C 320.035156 255.628906 319.125 256.859375 318.15625 258.042969 C 317.183594 259.226562 316.15625 260.359375 315.074219 261.441406 C 313.992188 262.523438 312.863281 263.550781 311.679688 264.523438 C 310.496094 265.492188 309.269531 266.402344 307.996094 267.253906 C 306.722656 268.105469 305.414062 268.890625 304.0625 269.613281 C 302.714844 270.335938 301.332031 270.988281 299.917969 271.574219 C 298.503906 272.160156 297.066406 272.675781 295.601562 273.117188 C 294.136719 273.5625 292.65625 273.933594 291.15625 274.234375 C 289.65625 274.53125 288.144531 274.757812 286.621094 274.90625 C 285.097656 275.058594 283.570312 275.132812 282.042969 275.132812 C 280.511719 275.132812 278.984375 275.058594 277.460938 274.90625 C 275.941406 274.757812 274.429688 274.53125 272.925781 274.234375 C 271.425781 273.933594 269.945312 273.5625 268.480469 273.117188 C 267.015625 272.675781 265.578125 272.160156 264.164062 271.574219 C 262.75 270.988281 261.367188 270.335938 260.019531 269.613281 C 258.667969 268.890625 257.359375 268.105469 256.085938 267.253906 C 254.816406 266.402344 253.585938 265.492188 252.40625 264.523438 C 251.222656 263.550781 250.089844 262.523438 249.007812 261.441406 C 247.925781 260.359375 246.898438 259.226562 245.929688 258.042969 C 244.957031 256.859375 244.046875 255.628906 243.199219 254.359375 C 242.347656 253.085938 241.5625 251.773438 240.839844 250.421875 C 240.121094 249.074219 239.464844 247.691406 238.878906 246.277344 C 238.292969 244.863281 237.78125 243.421875 237.335938 241.957031 C 236.890625 240.492188 236.519531 239.007812 236.222656 237.507812 C 235.921875 236.007812 235.699219 234.496094 235.550781 232.96875 C 235.398438 231.445312 235.324219 229.921875 235.324219 228.390625 C 235.324219 226.859375 235.398438 225.332031 235.550781 223.808594 C 235.699219 222.285156 235.921875 220.773438 236.222656 219.269531 C 236.519531 217.769531 236.890625 216.285156 237.335938 214.820312 C 237.78125 213.355469 238.292969 211.914062 238.878906 210.5 C 239.464844 209.085938 240.121094 207.703125 240.839844 206.355469 C 241.5625 205.003906 242.347656 203.691406 243.199219 202.421875 C 244.046875 201.148438 244.957031 199.917969 245.929688 198.734375 C 246.898438 197.550781 247.925781 196.417969 249.007812 195.335938 C 250.089844 194.253906 251.222656 193.226562 252.40625 192.257812 C 253.585938 191.285156 254.816406 190.375 256.085938 189.523438 C 257.359375 188.671875 258.667969 187.886719 260.019531 187.164062 C 261.367188 186.445312 262.75 185.789062 264.164062 185.203125 C 265.578125 184.617188 267.015625 184.101562 268.480469 183.660156 C 269.945312 183.214844 271.425781 182.84375 272.925781 182.542969 C 274.429688 182.246094 275.941406 182.023438 277.460938 181.871094 C 278.984375 181.722656 280.511719 181.644531 282.042969 181.644531 C 283.570312 181.644531 285.097656 181.722656 286.621094 181.871094 C 288.144531 182.023438 289.65625 182.246094 291.15625 182.542969 C 292.65625 182.84375 294.136719 183.214844 295.601562 183.660156 C 297.066406 184.101562 298.503906 184.617188 299.917969 185.203125 C 301.332031 185.789062 302.714844 186.445312 304.0625 187.164062 C 305.414062 187.886719 306.722656 188.671875 307.996094 189.523438 C 309.269531 190.375 310.496094 191.285156 311.679688 192.257812 C 312.863281 193.226562 313.992188 194.253906 315.074219 195.335938 C 316.15625 196.417969 317.183594 197.550781 318.15625 198.734375 C 319.125 199.917969 320.035156 201.148438 320.886719 202.421875 C 321.734375 203.691406 322.519531 205.003906 323.242188 206.355469 C 323.964844 207.703125 324.617188 209.085938 325.203125 210.5 C 325.789062 211.914062 326.304688 213.355469 326.746094 214.820312 C 327.191406 216.285156 327.5625 217.769531 327.859375 219.269531 C 328.160156 220.773438 328.382812 222.285156 328.535156 223.808594 C 328.683594 225.332031 328.757812 226.859375 328.757812 228.390625 Z M 328.757812 228.390625"/><path d="M 305.398438 321.867188 L 258.6875 321.894531 C 220 321.894531 188.613281 353.277344 188.613281 392.007812 L 375.46875 391.976562 C 375.46875 353.277344 344.105469 321.867188 305.398438 321.867188 Z M 305.398438 321.867188"/><path d="M 422.1875 205.019531 L 422.1875 438.71875 L 141.898438 438.71875 L 141.898438 64.800781 L 328.757812 64.800781 L 328.757812 18.058594 L 141.898438 18.058594 C 116.214844 18.058594 95.179688 39.097656 95.179688 64.800781 L 95.179688 532.207031 C 95.179688 557.902344 116.214844 578.941406 141.898438 578.941406 L 422.1875 578.941406 C 447.867188 578.941406 468.902344 557.902344 468.902344 532.199219 L 468.902344 205.019531 Z M 305.398438 532.199219 L 258.6875 532.199219 C 245.773438 532.199219 235.324219 521.753906 235.324219 508.832031 C 235.324219 495.910156 245.773438 485.464844 258.6875 485.464844 L 305.398438 485.464844 C 318.3125 485.464844 328.757812 495.910156 328.757812 508.832031 C 328.757812 521.753906 318.3125 532.199219 305.398438 532.199219 Z M 305.398438 532.199219"/><g clip-path="url(#a)"><path d="M 562.332031 64.800781 L 562.332031 41.433594 C 562.332031 28.574219 551.8125 18.058594 538.976562 18.058594 L 398.832031 18.058594 C 385.988281 18.058594 375.46875 28.574219 375.46875 41.425781 L 375.46875 134.902344 C 375.46875 147.753906 385.988281 158.273438 398.832031 158.273438 L 538.976562 158.273438 C 551.8125 158.277344 562.332031 147.761719 562.332031 134.910156 L 562.332031 111.542969 L 609.046875 158.277344 L 609.046875 18.058594 Z M 515.613281 111.535156 L 422.1875 111.535156 L 422.1875 64.792969 L 515.613281 64.792969 Z M 515.613281 111.535156"/></g></svg>