<svg width="44" height="41" viewBox="0 0 44 41" fill="none" xmlns="http://www.w3.org/2000/svg">
<path fill-rule="evenodd" clip-rule="evenodd" d="M22 0C30.7681 0 38.149 5.93927 40.3391 14.0142C42.3895 14.1863 44 15.9051 44 18V22C44 24.0501 42.4576 25.7401 40.47 25.9727C39.968 34.08 32.7337 41 24.5 41C23.6716 41 23 40.3284 23 39.5C23 38.6716 23.6716 38 24.5 38C31.067 38 36.9511 32.436 37.4606 26H37H35V20C35 12.8203 29.1797 7 22 7C14.8203 7 9 12.8203 9 20V26H7H4.33102H4C1.79086 26 0 24.2091 0 22V18C0 15.9051 1.61047 14.1863 3.66091 14.0142C5.85099 5.93927 13.2319 0 22 0Z" fill="#576684"/>
<path d="M38 20C38 28.8366 30.8366 36 22 36C13.1634 36 6 28.8366 6 20C6 11.1634 13.1634 4 22 4C30.8366 4 38 11.1634 38 20Z" fill="#ACB4C9"/>
<path fill-rule="evenodd" clip-rule="evenodd" d="M18 23.5C18.8284 23.5 19.5 24.1716 19.5 25C19.5 26.3807 20.6193 27.5 22 27.5C23.3807 27.5 24.5 26.3807 24.5 25C24.5 24.1716 25.1716 23.5 26 23.5C26.8284 23.5 27.5 24.1716 27.5 25C27.5 28.0376 25.0376 30.5 22 30.5C18.9624 30.5 16.5 28.0376 16.5 25C16.5 24.1716 17.1716 23.5 18 23.5Z" fill="#576684"/>
<path d="M17 17C17 18.1046 16.1046 19 15 19C13.8954 19 13 18.1046 13 17C13 15.8954 13.8954 15 15 15C16.1046 15 17 15.8954 17 17Z" fill="#576684"/>
<path d="M31 17C31 18.1046 30.1046 19 29 19C27.8954 19 27 18.1046 27 17C27 15.8954 27.8954 15 29 15C30.1046 15 31 15.8954 31 17Z" fill="#576684"/>
</svg>
