<svg width="24" height="24" viewBox="0 0 24 24" fill="none" xmlns="http://www.w3.org/2000/svg">
<path d="M20.7322 2.16406H3.26777C1.7268 2.16406 0.477539 3.41332 0.477539 4.95429V21.2093C0.477539 22.7503 1.7268 23.9995 3.26777 23.9995H20.7322C22.2731 23.9995 23.5224 22.7503 23.5224 21.2093V4.95429C23.5224 3.41324 22.2731 2.16406 20.7322 2.16406Z" fill="#EBF0F3"/>
<path d="M23.5224 7.40736V4.02656C23.5224 2.48559 22.2731 1.23633 20.7322 1.23633H3.26777C1.7268 1.23633 0.477539 2.48559 0.477539 4.02656V7.40736H23.5224Z" fill="#CE412D"/>
<path d="M23.5224 8.03737V4.9543C23.5224 3.41332 22.2731 2.16406 20.7322 2.16406H3.26777C1.7268 2.16406 0.477539 3.41332 0.477539 4.9543V8.03737H23.5224Z" fill="#FB8C69"/>
<path d="M5.04794 3.66309C4.5101 3.66309 4.0741 4.09909 4.0741 4.63693C4.0741 5.17477 4.5101 5.61069 5.04794 5.61069C5.58578 5.61069 6.0217 5.17469 6.0217 4.63693C6.02178 4.09909 5.58578 3.66309 5.04794 3.66309Z" fill="#D15241"/>
<path d="M5.04784 0C4.76014 0 4.52686 0.233289 4.52686 0.520987V4.58015C4.52686 4.86792 4.76014 5.10113 5.04784 5.10113C5.33554 5.10113 5.56883 4.86792 5.56883 4.58015V0.520987C5.56883 0.233289 5.33562 0 5.04784 0V0Z" fill="#4D5C7D"/>
<path d="M9.68258 3.66309C9.14474 3.66309 8.70874 4.09909 8.70874 4.63693C8.70874 5.17477 9.14474 5.61069 9.68258 5.61069C10.2204 5.61069 10.6563 5.17469 10.6563 4.63693C10.6564 4.09909 10.2204 3.66309 9.68258 3.66309Z" fill="#D15241"/>
<path d="M9.68261 0C9.39491 0 9.16162 0.233289 9.16162 0.520987V4.58015C9.16162 4.86792 9.39491 5.10113 9.68261 5.10113C9.97031 5.10113 10.2036 4.86792 10.2036 4.58015V0.520987C10.2036 0.233289 9.97031 0 9.68261 0V0Z" fill="#4D5C7D"/>
<path d="M14.3173 3.66309C13.7795 3.66309 13.3435 4.09909 13.3435 4.63693C13.3435 5.17477 13.7795 5.61069 14.3173 5.61069C14.8552 5.61069 15.2911 5.17469 15.2911 4.63693C15.2911 4.09909 14.8552 3.66309 14.3173 3.66309Z" fill="#D15241"/>
<path d="M14.3174 0C14.0297 0 13.7964 0.233289 13.7964 0.520987V4.58015C13.7964 4.86792 14.0297 5.10113 14.3174 5.10113C14.6051 5.10113 14.8383 4.86792 14.8383 4.58015V0.520987C14.8383 0.233289 14.6051 0 14.3174 0V0Z" fill="#4D5C7D"/>
<path d="M18.952 3.66309C18.4142 3.66309 17.9781 4.09909 17.9781 4.63693C17.9781 5.17477 18.4142 5.61069 18.952 5.61069C19.4898 5.61069 19.9258 5.17469 19.9258 4.63693C19.9258 4.09909 19.4897 3.66309 18.952 3.66309Z" fill="#D15241"/>
<path d="M18.9519 0C18.6642 0 18.4309 0.233289 18.4309 0.520987V4.58015C18.4309 4.86792 18.6642 5.10113 18.9519 5.10113C19.2396 5.10113 19.4729 4.86792 19.4729 4.58015V0.520987C19.4729 0.233289 19.2397 0 18.9519 0V0Z" fill="#4D5C7D"/>
<path d="M8.98059 11.8936H11.0868V13.9997H8.98059V11.8936Z" fill="#FB8C69"/>
<path d="M12.9132 11.8936H15.0194V13.9997H12.9132V11.8936Z" fill="#FB8C69"/>
<path d="M16.8457 11.8936H18.9519V13.9997H16.8457V11.8936Z" fill="#FB8C69"/>
<path d="M5.04785 15.1953H7.15403V17.3015H5.04785V15.1953Z" fill="#FB8C69"/>
<path d="M8.98059 15.1953H11.0868V17.3015H8.98059V15.1953Z" fill="#FB8C69"/>
<path d="M12.9132 15.1953H15.0194V17.3015H12.9132V15.1953Z" fill="#FB8C69"/>
<path d="M16.8457 15.1953H18.9519V17.3015H16.8457V15.1953Z" fill="#FB8C69"/>
<path d="M5.04785 18.4971H7.15403V20.6032H5.04785V18.4971Z" fill="#FB8C69"/>
<path d="M8.98059 18.4971H11.0868V20.6032H8.98059V18.4971Z" fill="#FB8C69"/>
<path d="M12.9132 18.4971H15.0194V20.6032H12.9132V18.4971Z" fill="#FB8C69"/>
</svg>
