<svg width="14" height="10" viewBox="0 0 14 10" fill="none" xmlns="http://www.w3.org/2000/svg">
<path d="M4.62553 8.12626L1.84873 5.00226C1.74306 4.88323 1.59444 4.81105 1.43556 4.8016C1.27668 4.79215 1.12055 4.8462 1.00153 4.95186C0.882496 5.05752 0.810317 5.20614 0.800865 5.36502C0.791413 5.5239 0.845463 5.68003 0.951126 5.79906L4.15113 9.39906C4.20545 9.46018 4.27169 9.50955 4.34579 9.54414C4.41988 9.57873 4.50026 9.59781 4.582 9.60021C4.66374 9.6026 4.7451 9.58827 4.8211 9.55808C4.89709 9.52789 4.96611 9.48249 5.02393 9.42466L13.4239 1.02466C13.5299 0.910919 13.5876 0.760481 13.5849 0.60504C13.5821 0.449599 13.5192 0.301291 13.4092 0.191361C13.2993 0.0814307 13.151 0.0184611 12.9955 0.0157185C12.8401 0.0129759 12.6897 0.0706744 12.5759 0.176658L4.62553 8.12626Z" fill="#303030"/>
</svg>
