<svg width="16" height="16" viewBox="0 0 16 16" fill="none" xmlns="http://www.w3.org/2000/svg">
<path d="M7.99998 1.16602C8.5534 1.16598 9.08587 1.37772 9.48813 1.7578C9.8904 2.13788 10.132 2.65748 10.1633 3.21002L10.1666 3.33268H13.6666C13.7933 3.33272 13.9153 3.38085 14.0078 3.46733C14.1004 3.55382 14.1567 3.67221 14.1653 3.7986C14.174 3.92499 14.1343 4.04994 14.0544 4.14822C13.9744 4.24649 13.8601 4.31075 13.7346 4.32802L13.6666 4.33268H13.136L12.2826 13.0127C12.2399 13.4454 12.0447 13.8489 11.732 14.151C11.4192 14.4531 11.0093 14.6342 10.5753 14.662L10.458 14.666H5.54198C5.10695 14.666 4.68611 14.5113 4.35465 14.2295C4.02319 13.9478 3.80273 13.5574 3.73265 13.128L3.71731 13.012L2.86331 4.33268H2.33331C2.21249 4.33268 2.09575 4.28892 2.00469 4.2095C1.91363 4.13009 1.85441 4.02039 1.83798 3.90068L1.83331 3.83268C1.83332 3.71186 1.87707 3.59512 1.95649 3.50406C2.03591 3.413 2.14561 3.35378 2.26531 3.33735L2.33331 3.33268H5.83331C5.83331 2.75805 6.06159 2.20695 6.46792 1.80062C6.87424 1.39429 7.42534 1.16602 7.99998 1.16602ZM12.1313 4.33268H3.86798L4.71265 12.914C4.73135 13.1055 4.81573 13.2846 4.95146 13.4209C5.0872 13.5573 5.26592 13.6425 5.45731 13.662L5.54198 13.666H10.458C10.858 13.666 11.1973 13.3827 11.2746 12.998L11.288 12.914L12.1306 4.33268H12.1313ZM9.16665 6.16602C9.28747 6.16602 9.40421 6.20978 9.49527 6.28919C9.58633 6.36861 9.64555 6.47831 9.66198 6.59802L9.66665 6.66602V11.3327C9.66661 11.4594 9.61848 11.5813 9.532 11.6739C9.44551 11.7664 9.32711 11.8227 9.20073 11.8314C9.07434 11.84 8.94939 11.8003 8.85111 11.7204C8.75284 11.6404 8.68858 11.5262 8.67131 11.4007L8.66665 11.3327V6.66602C8.66665 6.53341 8.71933 6.40623 8.81309 6.31246C8.90686 6.21869 9.03404 6.16602 9.16665 6.16602ZM6.83331 6.16602C6.95414 6.16602 7.07087 6.20978 7.16193 6.28919C7.25299 6.36861 7.31221 6.47831 7.32865 6.59802L7.33331 6.66602V11.3327C7.33327 11.4594 7.28515 11.5813 7.19866 11.6739C7.11218 11.7664 6.99378 11.8227 6.86739 11.8314C6.74101 11.84 6.61605 11.8003 6.51778 11.7204C6.41951 11.6404 6.35525 11.5262 6.33798 11.4007L6.33331 11.3327V6.66602C6.33331 6.53341 6.38599 6.40623 6.47976 6.31246C6.57353 6.21869 6.70071 6.16602 6.83331 6.16602ZM7.99998 2.16602C7.70719 2.16603 7.4251 2.27613 7.20972 2.47447C6.99434 2.67281 6.86141 2.94488 6.83731 3.23668L6.83331 3.33268H9.16665C9.16665 3.02326 9.04373 2.72652 8.82494 2.50772C8.60615 2.28893 8.3094 2.16602 7.99998 2.16602Z" fill="#5C5C5C"/>
</svg>
