<svg width="16" height="16" viewBox="0 0 16 16" fill="none" xmlns="http://www.w3.org/2000/svg">
<path d="M14.02 1.97988C14.4673 2.42721 14.7186 3.03393 14.7186 3.66655C14.7186 4.29917 14.4673 4.90588 14.02 5.35321L6.04133 13.3332C5.85676 13.5179 5.62719 13.6511 5.37533 13.7199L1.96466 14.6499C1.87965 14.6729 1.79006 14.6731 1.70496 14.6505C1.61985 14.6278 1.54224 14.583 1.47999 14.5207C1.41775 14.4584 1.37306 14.3807 1.35047 14.2956C1.32788 14.2105 1.32817 14.1209 1.35133 14.0359L2.28133 10.6252C2.35006 10.3733 2.48334 10.1438 2.66799 9.95921L10.6467 1.97988C11.094 1.53255 11.7007 1.28125 12.3333 1.28125C12.9659 1.28125 13.5727 1.53255 14.02 1.97988ZM9.99999 4.03988L3.37466 10.6665C3.31319 10.7281 3.26884 10.8046 3.24599 10.8885L2.54599 13.4552L5.11266 12.7552C5.19625 12.7318 5.27231 12.687 5.33333 12.6252L11.96 5.99988L9.99999 4.03988ZM11.3533 2.68655L10.7067 3.33321L12.6667 5.29321L13.3133 4.64655C13.5689 4.38574 13.7113 4.03461 13.7094 3.66945C13.7076 3.30428 13.5617 2.95461 13.3035 2.6964C13.0453 2.43818 12.6956 2.29231 12.3304 2.29046C11.9653 2.28862 11.6141 2.43096 11.3533 2.68655Z" fill="#5C5C5C"/>
</svg>
