<svg width="16" height="16" viewBox="0 0 16 16" fill="none" xmlns="http://www.w3.org/2000/svg">
<path d="M8.00004 1.16699C8.55347 1.16696 9.08593 1.37869 9.48819 1.75877C9.89046 2.13885 10.132 2.65845 10.1634 3.21099L10.1667 3.33366H13.6667C13.7934 3.3337 13.9153 3.38182 14.0079 3.46831C14.1005 3.55479 14.1568 3.67319 14.1654 3.79958C14.174 3.92597 14.1344 4.05092 14.0544 4.14919C13.9745 4.24746 13.8602 4.31172 13.7347 4.32899L13.6667 4.33366H13.136L12.2827 13.0137C12.24 13.4464 12.0448 13.8498 11.732 14.152C11.4193 14.4541 11.0093 14.6352 10.5754 14.663L10.458 14.667H5.54204C5.10701 14.667 4.68617 14.5123 4.35471 14.2305C4.02325 13.9488 3.80279 13.5583 3.73271 13.129L3.71737 13.013L2.86337 4.33366H2.33337C2.21255 4.33365 2.09581 4.2899 2.00475 4.21048C1.91369 4.13106 1.85447 4.02136 1.83804 3.90166L1.83337 3.83366C1.83338 3.71283 1.87714 3.5961 1.95655 3.50504C2.03597 3.41398 2.14567 3.35476 2.26537 3.33833L2.33337 3.33366H5.83337C5.83337 2.75902 6.06165 2.20792 6.46798 1.80159C6.87431 1.39527 7.42541 1.16699 8.00004 1.16699ZM12.1314 4.33366H3.86804L4.71271 12.915C4.73141 13.1065 4.81579 13.2856 4.95152 13.4219C5.08726 13.5583 5.26598 13.6434 5.45737 13.663L5.54204 13.667H10.458C10.858 13.667 11.1974 13.3837 11.2747 12.999L11.288 12.915L12.1307 4.33366H12.1314ZM9.16671 6.16699C9.28753 6.167 9.40427 6.21075 9.49533 6.29017C9.58639 6.36959 9.64561 6.47929 9.66204 6.59899L9.66671 6.66699V11.3337C9.66667 11.4603 9.61854 11.5823 9.53206 11.6749C9.44557 11.7674 9.32718 11.8237 9.20079 11.8323C9.0744 11.841 8.94945 11.8013 8.85117 11.7214C8.7529 11.6414 8.68864 11.5272 8.67137 11.4017L8.66671 11.3337V6.66699C8.66671 6.53438 8.71939 6.40721 8.81315 6.31344C8.90692 6.21967 9.0341 6.16699 9.16671 6.16699ZM6.83337 6.16699C6.9542 6.167 7.07094 6.21075 7.16199 6.29017C7.25305 6.36959 7.31228 6.47929 7.32871 6.59899L7.33337 6.66699V11.3337C7.33334 11.4603 7.28521 11.5823 7.19873 11.6749C7.11224 11.7674 6.99384 11.8237 6.86745 11.8323C6.74107 11.841 6.61611 11.8013 6.51784 11.7214C6.41957 11.6414 6.35531 11.5272 6.33804 11.4017L6.33337 11.3337V6.66699C6.33337 6.53438 6.38605 6.40721 6.47982 6.31344C6.57359 6.21967 6.70077 6.16699 6.83337 6.16699ZM8.00004 2.16699C7.70725 2.167 7.42516 2.27711 7.20978 2.47545C6.9944 2.67378 6.86147 2.94586 6.83737 3.23766L6.83337 3.33366H9.16671C9.16671 3.02424 9.04379 2.72749 8.825 2.5087C8.60621 2.28991 8.30946 2.16699 8.00004 2.16699Z" fill="#5C5C5C"/>
</svg>
