<svg width="24" height="24" viewBox="0 0 24 24" fill="none" xmlns="http://www.w3.org/2000/svg">
<circle cx="12" cy="12" r="12" fill="#7E88F4"/>
<path d="M12.585 8L15 10.415V16H9V8H12.585ZM13 7H9C8.45 7 8 7.45 8 8V16C8 16.55 8.45 17 9 17H15C15.55 17 16 16.55 16 16V10L13 7ZM13.5 11.5H11.5V12H13C13.275 12 13.5 12.225 13.5 12.5V14C13.5 14.275 13.275 14.5 13 14.5H12.5V15H11.5V14.5H10.5V13.5H12.5V13H11C10.725 13 10.5 12.775 10.5 12.5V11C10.5 10.725 10.725 10.5 11 10.5H11.5V10H12.5V10.5H13.5V11.5Z" fill="white"/>
</svg>
