<svg width="24" height="24" viewBox="0 0 24 24" fill="none" xmlns="http://www.w3.org/2000/svg">
<circle cx="12" cy="12" r="12" fill="#7E88F4"/>
<g clip-path="url(#clip0)">
<path d="M13.6689 11.4511C13.198 11.1909 12.6974 10.9926 12.2017 10.7869C11.9142 10.6679 11.6391 10.5291 11.3962 10.3358C10.9179 9.95414 11.0096 9.33454 11.5697 9.08918C11.7283 9.01979 11.8944 8.99748 12.0629 8.98757C12.7123 8.95287 13.3294 9.07183 13.9168 9.35437C14.2092 9.49564 14.3059 9.45103 14.405 9.14619C14.5091 8.824 14.5958 8.49685 14.6925 8.17218C14.7569 7.95408 14.6776 7.81033 14.4719 7.71863C14.0952 7.55258 13.7086 7.43361 13.3021 7.36918C12.7717 7.28739 12.7717 7.28491 12.7693 6.75206C12.7668 6.0011 12.7668 6.0011 12.0133 6.0011C11.9043 6.0011 11.7952 5.99862 11.6862 6.0011C11.3343 6.01102 11.2748 6.07297 11.2649 6.42739C11.2599 6.586 11.2649 6.74462 11.2624 6.90572C11.2599 7.37661 11.2574 7.36918 10.8064 7.53275C9.71587 7.92929 9.04175 8.67281 8.96988 9.86244C8.90544 10.9158 9.45564 11.6271 10.3206 12.145C10.8535 12.4648 11.4433 12.6531 12.0084 12.9034C12.229 13.0001 12.4396 13.1116 12.623 13.2653C13.1658 13.7139 13.0667 14.4599 12.4223 14.7424C12.0778 14.8936 11.7135 14.9308 11.3392 14.8837C10.7618 14.8118 10.2091 14.6606 9.68861 14.3905C9.38377 14.2319 9.29455 14.274 9.19045 14.6036C9.10123 14.8886 9.02192 15.1761 8.94261 15.4636C8.83604 15.8503 8.8757 15.942 9.24498 16.1229C9.71587 16.3509 10.219 16.4674 10.732 16.5492C11.1335 16.6136 11.1459 16.6309 11.1509 17.0473C11.1533 17.2357 11.1533 17.4265 11.1558 17.6149C11.1583 17.8528 11.2723 17.9916 11.5177 17.9965C11.7952 18.0015 12.0753 18.0015 12.3529 17.9941C12.5809 17.9891 12.6974 17.8652 12.6974 17.6347C12.6974 17.3769 12.7098 17.1167 12.6999 16.859C12.6875 16.5962 12.8015 16.4624 13.0543 16.393C13.6367 16.2344 14.1324 15.9221 14.5141 15.4562C15.5748 14.1674 15.1708 12.2814 13.6689 11.4511Z" fill="white"/>
</g>
<defs>
<clipPath id="clip0">
<rect width="12" height="12" fill="white" transform="translate(6 6)"/>
</clipPath>
</defs>
</svg>
