<svg width="100" height="60" viewBox="0 0 100 60" fill="none" xmlns="http://www.w3.org/2000/svg">
<path fill-rule="evenodd" clip-rule="evenodd" d="M5.01811 54.9119C2.24656 54.9119 0 53.0281 0 50.7039V9.75293H4.69419L5.12514 48.5104C5.12514 49.6727 6.37681 50.2424 7.76231 50.2424H50.5353V54.9119H5.01811Z" fill="#7E8AF6"/>
<path fill-rule="evenodd" clip-rule="evenodd" d="M34.6014 9.99578L93.8955 9.84012C94.7112 9.84012 95.3716 10.5185 95.3716 11.3556V60V54.9117L100 50.2474V58.2623V10.0023C100 7.28856 97.8569 5.08838 95.2136 5.08838H34.6014C33.2309 5.08838 32.1199 6.1884 32.1199 7.54533C32.1199 8.89868 33.2279 9.99579 34.5948 9.99579C34.597 9.99579 34.5992 9.99578 34.6014 9.99578Z" fill="#7E8AF6"/>
<path fill-rule="evenodd" clip-rule="evenodd" d="M92.3354 50.1599H93.9591C94.7663 50.1599 95.4198 49.4815 95.4198 48.6444V-3.43323e-05V5.08831L100 9.75262V1.7377V49.9977C100 52.7114 97.8793 54.9116 95.2635 54.9116H92.3354C91.0101 54.9116 89.9358 53.8479 89.9358 52.5358C89.9358 51.2236 91.0101 50.1599 92.3354 50.1599Z" fill="#7E8AF6"/>
<path fill-rule="evenodd" clip-rule="evenodd" d="M20.1284 54.9114H76.7402H77.0877C78.3886 54.9114 79.4432 53.8672 79.4432 52.5792C79.4432 51.2912 78.3886 50.2471 77.0877 50.2471H15.4175C15.4175 52.8231 17.5266 54.9114 20.1284 54.9114Z" fill="#7E8AF6"/>
<path fill-rule="evenodd" clip-rule="evenodd" d="M16.2142 5.08838C17.903 5.08838 19.2719 6.4438 19.2719 8.11579V40.6007C19.2719 42.2986 17.8818 43.6749 16.167 43.6749C14.4563 43.6749 13.0696 42.3019 13.0696 40.6082C13.0696 40.6057 13.0696 40.6032 13.0696 40.6007L13.1492 8.11578C13.1533 6.44261 14.5243 5.08838 16.2142 5.08838Z" fill="#7E8AF6"/>
<path fill-rule="evenodd" clip-rule="evenodd" d="M84.7367 16.1133C86.4254 16.1133 87.7944 17.4687 87.7944 19.1407V51.8377C87.7944 53.5355 86.4043 54.9119 84.6895 54.9119C82.9788 54.9119 81.592 53.5388 81.592 51.8451C81.592 51.8426 81.592 51.8401 81.592 51.8377L81.6717 19.1407C81.6758 17.4675 83.0469 16.1133 84.7367 16.1133Z" fill="#7E8AF6"/>
<path fill-rule="evenodd" clip-rule="evenodd" d="M25.5888 16.1133C27.3036 16.1133 28.6937 17.4896 28.6937 19.1875V40.6009C28.6937 42.2987 27.3036 43.6751 25.5888 43.6751C23.874 43.6751 22.4839 42.2987 22.4839 40.6009V19.1875C22.4839 17.4896 23.874 16.1133 25.5888 16.1133Z" fill="#7E8AF6" stroke="#7E8AF6"/>
<path opacity="0.319034" d="M28.6937 8.16258C28.6937 6.46475 27.3036 5.08838 25.5888 5.08838C23.874 5.08838 22.4839 6.46475 22.4839 8.16258C22.4839 9.86042 23.874 11.2368 25.5888 11.2368C27.3036 11.2368 28.6937 9.86042 28.6937 8.16258Z" fill="#7E8AF6"/>
<path opacity="0.331613" d="M75.3748 30C75.3748 28.3022 73.9846 26.9258 72.2698 26.9258C70.555 26.9258 69.1649 28.3022 69.1649 30C69.1649 31.6978 70.555 33.0742 72.2698 33.0742C73.9846 33.0742 75.3748 31.6978 75.3748 30Z" fill="#7E8AF6"/>
<path d="M38.863 40.6483V27.9685C38.863 25.9362 39.3608 24.4049 40.3564 23.3746C41.352 22.3444 42.689 21.8292 44.3673 21.8292C45.8749 21.8292 47.027 22.2738 47.8235 23.1629L47.9191 23.2713C48.6833 24.1515 49.4278 25.3561 49.4278 27.0904V40.5758C49.4278 42.2875 50.8262 43.6751 52.5512 43.6751C54.2761 43.6751 55.6745 42.2875 55.6745 40.5758V26.1903C55.6745 22.8595 54.7998 20.3473 53.0504 18.6537C51.301 16.9601 49.004 16.1133 46.1594 16.1133C44.5949 16.1133 43.1583 16.3744 41.8498 16.8966C40.5413 17.4188 39.4462 18.1597 38.5643 19.1194V18.9919C38.5643 17.4021 37.2655 16.1133 35.6633 16.1133C34.0612 16.1133 32.7623 17.4021 32.7623 18.9919V40.6483C32.7623 42.3199 34.128 43.6751 35.8127 43.6751C37.4973 43.6751 38.863 42.3199 38.863 40.6483Z" fill="#7E8AF6" stroke="#7E8AF6"/>
<path d="M72.1627 41.555C78.6671 41.555 83.94 36.3342 83.94 29.8942C83.94 23.4541 78.6671 18.2334 72.1627 18.2334C65.6583 18.2334 60.3854 23.4541 60.3854 29.8942C60.3854 36.3342 65.6583 41.555 72.1627 41.555Z" stroke="#7E8AF6" stroke-width="5"/>
<path fill-rule="evenodd" clip-rule="evenodd" d="M7.79876 9.90486L6.15119 9.84012C5.32923 9.84012 4.66379 10.5185 4.66379 11.3556V60V54.9117L-5.14984e-05 50.2474V58.2623V10.0023C-5.14984e-05 7.28856 2.15943 5.08838 4.82296 5.08838H7.79681C9.16731 5.08838 10.2783 6.1884 10.2783 7.54533C10.2783 8.84949 9.21053 9.90671 7.89334 9.90671C7.86181 9.90671 7.83028 9.9061 7.79876 9.90486Z" fill="#7E8AF6"/>
</svg>
