<svg width="70" height="42" viewBox="0 0 70 42" fill="none" xmlns="http://www.w3.org/2000/svg">
<path fill-rule="evenodd" clip-rule="evenodd" d="M3.51267 38.4382C1.57259 38.4382 0 37.1194 0 35.4925V6.82684H3.28593L3.5876 33.9571C3.5876 34.7707 4.46377 35.1695 5.43362 35.1695H35.3747V38.4382H3.51267Z" fill="#7E8AF6"/>
<path fill-rule="evenodd" clip-rule="evenodd" d="M24.2209 6.99701L65.7268 6.88804C66.2978 6.88804 66.7601 7.36295 66.7601 7.94885V42V38.4382L69.9999 35.1731V40.7836V7.00157C69.9999 5.10195 68.4998 3.56183 66.6495 3.56183H24.2209C23.2616 3.56183 22.4839 4.33184 22.4839 5.2817C22.4839 6.22904 23.2595 6.99701 24.2163 6.99701C24.2179 6.99701 24.2194 6.99701 24.2209 6.99701Z" fill="#7E8AF6"/>
<path fill-rule="evenodd" clip-rule="evenodd" d="M64.6348 35.112H65.7714C66.3365 35.112 66.7939 34.6371 66.7939 34.0511V1.14441e-05V3.56185L70.0001 6.82687V1.21643V34.9984C70.0001 36.898 68.5155 38.4382 66.6845 38.4382H64.6348C63.7071 38.4382 62.9551 37.6936 62.9551 36.7751C62.9551 35.8566 63.7071 35.112 64.6348 35.112Z" fill="#7E8AF6"/>
<path fill-rule="evenodd" clip-rule="evenodd" d="M14.0899 38.4381H53.7181H53.9614C54.872 38.4381 55.6102 37.7072 55.6102 36.8056C55.6102 35.904 54.872 35.1731 53.9614 35.1731H10.7922C10.7922 36.9763 12.2686 38.4381 14.0899 38.4381Z" fill="#7E8AF6"/>
<path fill-rule="evenodd" clip-rule="evenodd" d="M11.3499 3.56183C12.532 3.56183 13.4903 4.51062 13.4903 5.68102V28.4205C13.4903 29.609 12.5172 30.5724 11.3169 30.5724C10.1194 30.5724 9.14868 29.6113 9.14868 28.4257C9.14868 28.424 9.14868 28.4222 9.14869 28.4205L9.20439 5.68101C9.20726 4.50979 10.167 3.56183 11.3499 3.56183Z" fill="#7E8AF6"/>
<path fill-rule="evenodd" clip-rule="evenodd" d="M59.3158 11.2792C60.4979 11.2792 61.4562 12.228 61.4562 13.3984V36.2862C61.4562 37.4747 60.4831 38.4382 59.2827 38.4382C58.0852 38.4382 57.1145 37.477 57.1145 36.2914C57.1145 36.2897 57.1145 36.288 57.1145 36.2862L57.1703 13.3984C57.1731 12.2271 58.1329 11.2792 59.3158 11.2792Z" fill="#7E8AF6"/>
<path fill-rule="evenodd" clip-rule="evenodd" d="M17.9122 11.2792C19.1126 11.2792 20.0857 12.2426 20.0857 13.4311V28.4205C20.0857 29.609 19.1126 30.5725 17.9122 30.5725C16.7119 30.5725 15.7388 29.609 15.7388 28.4205V13.4311C15.7388 12.2426 16.7119 11.2792 17.9122 11.2792Z" fill="#7E8AF6" stroke="#7E8AF6"/>
<path opacity="0.319034" d="M20.0857 5.71377C20.0857 4.52529 19.1126 3.56183 17.9122 3.56183C16.7119 3.56183 15.7388 4.52529 15.7388 5.71377C15.7388 6.90226 16.7119 7.86572 17.9122 7.86572C19.1126 7.86572 20.0857 6.90226 20.0857 5.71377Z" fill="#7E8AF6"/>
<path opacity="0.331613" d="M52.7624 21C52.7624 19.8115 51.7893 18.8481 50.589 18.8481C49.3886 18.8481 48.4155 19.8115 48.4155 21C48.4155 22.1885 49.3886 23.152 50.589 23.152C51.7893 23.152 52.7624 22.1885 52.7624 21Z" fill="#7E8AF6"/>
<path d="M27.2041 28.4537V19.5779C27.2041 18.1552 27.5525 17.0833 28.2495 16.3621C28.9464 15.6409 29.8823 15.2803 31.0571 15.2803C32.1124 15.2803 32.9189 15.5915 33.4764 16.2139L33.5433 16.2898C34.0783 16.906 34.5994 17.7492 34.5994 18.9632V28.4029C34.5994 29.6011 35.5783 30.5725 36.7858 30.5725C37.9933 30.5725 38.9721 29.6011 38.9721 28.4029V18.3331C38.9721 16.0015 38.3598 14.243 37.1352 13.0575C35.9106 11.8719 34.3027 11.2792 32.3115 11.2792C31.2164 11.2792 30.2108 11.4619 29.2949 11.8275C28.3789 12.193 27.6123 12.7117 26.995 13.3835V13.2942C26.995 12.1814 26.0858 11.2792 24.9643 11.2792C23.8428 11.2792 22.9336 12.1814 22.9336 13.2942V28.4537C22.9336 29.6238 23.8896 30.5725 25.0688 30.5725C26.2481 30.5725 27.2041 29.6238 27.2041 28.4537Z" fill="#7E8AF6" stroke="#7E8AF6"/>
<path d="M50.5139 29.0883C55.067 29.0883 58.758 25.4338 58.758 20.9258C58.758 16.4177 55.067 12.7632 50.5139 12.7632C45.9608 12.7632 42.2698 16.4177 42.2698 20.9258C42.2698 25.4338 45.9608 29.0883 50.5139 29.0883Z" stroke="#7E8AF6" stroke-width="5"/>
<path fill-rule="evenodd" clip-rule="evenodd" d="M5.45914 6.93336L4.30584 6.88804C3.73046 6.88804 3.26465 7.36295 3.26465 7.94885V42V38.4382L-3.62396e-05 35.1731V40.7836V7.00157C-3.62396e-05 5.10195 1.5116 3.56183 3.37607 3.56183H5.45777C6.41712 3.56183 7.19482 4.33184 7.19482 5.2817C7.19482 6.19461 6.44737 6.93466 5.52534 6.93466C5.50327 6.93466 5.48119 6.93423 5.45914 6.93336Z" fill="#7E8AF6"/>
</svg>
