<svg width="21" height="21" viewBox="0 0 21 21" fill="none" xmlns="http://www.w3.org/2000/svg">
<path d="M19.4249 8.07207L10.8937 2.16582C10.6968 2.03457 10.3687 2.03457 10.1718 2.16582L5.24995 5.5127V4.2002C5.24995 3.80645 4.98745 3.54395 4.5937 3.54395C4.19995 3.54395 3.93745 3.80645 3.93745 4.2002V6.36582L1.57495 8.00645C1.24683 8.20332 1.1812 8.59707 1.37808 8.9252C1.57495 9.25332 1.9687 9.31895 2.29683 9.12207L10.5 3.47832L18.6374 9.12207C19.0312 9.38457 19.3593 9.1877 19.5562 8.9252C19.7531 8.6627 19.6875 8.26895 19.4249 8.07207Z" fill="white"/>
<path d="M16.9311 9.7127L10.8937 5.44707C10.6968 5.31582 10.3686 5.31582 10.1062 5.44707L4.06865 9.7127C3.87178 9.84395 3.80615 10.0408 3.80615 10.2377V18.3096C3.80615 18.7033 4.06865 18.9658 4.4624 18.9658H8.53115C9.12178 18.9658 9.25303 18.7033 9.25303 18.3096V14.3721C9.25303 13.7158 9.77803 13.1908 10.4343 13.1908C11.0905 13.1908 11.6155 13.7158 11.6155 14.3721V18.3096C11.6155 18.6377 11.878 18.9658 12.2718 18.9658H16.603C16.9968 18.9658 17.2593 18.7033 17.2593 18.3096V10.2377C17.1936 10.0408 17.128 9.84395 16.9311 9.7127Z" fill="white"/>
</svg>
