<svg width="21" height="21" viewBox="0 0 21 21" fill="none" xmlns="http://www.w3.org/2000/svg">
<g clip-path="url(#clip0)">
<path d="M13.4205 9.53893C12.5964 9.08352 11.7203 8.73655 10.8529 8.37656C10.3497 8.16838 9.86832 7.92549 9.44327 7.58719C8.6062 6.91926 8.76667 5.83497 9.74688 5.40558C10.0245 5.28414 10.3151 5.24511 10.61 5.22776C11.7463 5.16704 12.8263 5.37522 13.8542 5.86966C14.366 6.11688 14.5351 6.03881 14.7086 5.50534C14.8908 4.9415 15.0426 4.36899 15.2117 3.80082C15.3245 3.41915 15.1857 3.16759 14.8257 3.00712C14.1665 2.71652 13.4899 2.50834 12.7786 2.39557C11.8504 2.25244 11.8504 2.24811 11.8461 1.31561C11.8417 0.00143939 11.8417 0.00143936 10.5232 0.00143936C10.3324 0.00143936 10.1416 -0.00289783 9.95073 0.00143936C9.33485 0.0187881 9.23075 0.127218 9.2134 0.747437C9.20473 1.02502 9.2134 1.3026 9.20907 1.58452C9.20473 2.40858 9.20039 2.39557 8.41102 2.68183C6.50266 3.37578 5.32294 4.67693 5.19716 6.75879C5.0844 8.6021 6.04725 9.84687 7.56093 10.7533C8.49343 11.3128 9.52568 11.6425 10.5146 12.0805C10.9006 12.2497 11.2692 12.4449 11.5902 12.7138C12.54 13.4988 12.3665 14.8043 11.2389 15.2987C10.636 15.5633 9.99844 15.6284 9.34352 15.5459C8.33295 15.4202 7.36576 15.1556 6.45495 14.6828C5.92147 14.4053 5.76533 14.479 5.58317 15.0558C5.42703 15.5546 5.28824 16.0577 5.14945 16.5608C4.96295 17.2375 5.03235 17.3979 5.67859 17.7145C6.50266 18.1136 7.38311 18.3174 8.28091 18.4605C8.98353 18.5733 9.00522 18.6037 9.01389 19.3323C9.01823 19.6619 9.01823 19.9959 9.02257 20.3255C9.0269 20.7419 9.22642 20.9848 9.6558 20.9935C10.1416 21.0021 10.6317 21.0021 11.1174 20.9891C11.5165 20.9804 11.7203 20.7636 11.7203 20.3602C11.7203 19.9092 11.742 19.4538 11.7246 19.0027C11.703 18.5429 11.9025 18.3087 12.3449 18.1873C13.3641 17.9097 14.2315 17.3632 14.8995 16.5478C16.7558 14.2925 16.0488 10.9919 13.4205 9.53893Z" fill="white"/>
</g>
<defs>
<clipPath id="clip0">
<rect width="21" height="21" fill="white"/>
</clipPath>
</defs>
</svg>
