<svg width="21" height="21" viewBox="0 0 21 21" fill="none" xmlns="http://www.w3.org/2000/svg">
<path d="M18.9991 9.17009L17.0449 8.58676C16.9098 8.11502 16.724 7.65931 16.4908 7.22759L17.4474 5.43676C17.4833 5.36916 17.4965 5.29179 17.4849 5.21613C17.4733 5.14047 17.4377 5.07055 17.3833 5.01676L15.9891 3.61676C15.9353 3.56231 15.8654 3.52667 15.7897 3.51511C15.7141 3.50355 15.6367 3.51669 15.5691 3.55259L13.7899 4.50342C13.3539 4.25881 12.8923 4.06317 12.4133 3.92009L11.8299 1.98926C11.8052 1.9181 11.7586 1.85661 11.6968 1.81363C11.6349 1.77065 11.5611 1.7484 11.4858 1.75009H9.51409C9.43834 1.75044 9.36468 1.77496 9.30383 1.82007C9.24297 1.86519 9.19811 1.92854 9.17576 2.00092L8.59242 3.92592C8.10943 4.06824 7.64378 4.26389 7.20409 4.50926L5.45409 3.56426C5.38649 3.52836 5.30912 3.51522 5.23346 3.52677C5.1578 3.53833 5.08788 3.57398 5.03409 3.62842L3.61659 5.01092C3.56215 5.06472 3.5265 5.13464 3.51494 5.21029C3.50338 5.28595 3.51653 5.36333 3.55242 5.43092L4.49742 7.18092C4.25245 7.61877 4.05681 8.08244 3.91409 8.56342L1.98326 9.14676C1.91088 9.16911 1.84752 9.21398 1.80241 9.27483C1.75729 9.33568 1.73277 9.40934 1.73242 9.48509V11.4568C1.73277 11.5325 1.75729 11.6062 1.80241 11.667C1.84752 11.7279 1.91088 11.7727 1.98326 11.7951L3.92576 12.3784C4.07004 12.8514 4.26565 13.3072 4.50909 13.7376L3.55242 15.5693C3.51653 15.6369 3.50338 15.7142 3.51494 15.7899C3.5265 15.8655 3.56215 15.9355 3.61659 15.9893L5.01076 17.3834C5.06455 17.4379 5.13447 17.4735 5.21013 17.4851C5.28579 17.4966 5.36316 17.4835 5.43076 17.4476L7.23326 16.4851C7.65965 16.7152 8.10943 16.899 8.57492 17.0334L9.15826 18.9993C9.18061 19.0716 9.22547 19.135 9.28633 19.1801C9.34718 19.2252 9.42084 19.2497 9.49659 19.2501H11.4683C11.544 19.2497 11.6177 19.2252 11.6785 19.1801C11.7394 19.135 11.7842 19.0716 11.8066 18.9993L12.3899 17.0276C12.8514 16.8925 13.2973 16.7087 13.7199 16.4793L15.5341 17.4476C15.6017 17.4835 15.6791 17.4966 15.7547 17.4851C15.8304 17.4735 15.9003 17.4379 15.9541 17.3834L17.3483 15.9893C17.4027 15.9355 17.4383 15.8655 17.4499 15.7899C17.4615 15.7142 17.4483 15.6369 17.4124 15.5693L16.4441 13.7609C16.6759 13.3367 16.8617 12.8888 16.9983 12.4251L18.9641 11.8418C19.0365 11.8194 19.0998 11.7745 19.1449 11.7137C19.1901 11.6528 19.2146 11.5792 19.2149 11.5034V9.51426C19.2184 9.44172 19.1995 9.36987 19.1609 9.30835C19.1224 9.24682 19.0659 9.19858 18.9991 9.17009ZM10.4999 13.7084C9.86537 13.7084 9.24508 13.5203 8.71747 13.1677C8.18986 12.8152 7.77864 12.3141 7.53581 11.7279C7.29298 11.1416 7.22944 10.4965 7.35324 9.87418C7.47703 9.25182 7.78259 8.68015 8.23129 8.23146C8.67998 7.78276 9.25165 7.4772 9.87401 7.3534C10.4964 7.22961 11.1415 7.29315 11.7277 7.53598C12.3139 7.77881 12.815 8.19003 13.1676 8.71764C13.5201 9.24524 13.7083 9.86554 13.7083 10.5001C13.7083 11.351 13.3702 12.167 12.7686 12.7687C12.1669 13.3704 11.3508 13.7084 10.4999 13.7084Z" fill="white"/>
</svg>
