<svg width="21" height="21" viewBox="0 0 21 21" fill="none" xmlns="http://www.w3.org/2000/svg">
<path d="M18.2824 1.23535H16.4294V3.08829C16.4294 3.45888 16.1206 3.70594 15.8118 3.70594C15.503 3.70594 15.1941 3.45888 15.1941 3.08829V1.23535H5.31179V3.08829C5.31179 3.45888 5.00297 3.70594 4.69415 3.70594C4.38532 3.70594 4.0765 3.45888 4.0765 3.08829V1.23535H2.22356C1.29709 1.23535 0.617676 2.03829 0.617676 3.08829V5.31182H20.3824V3.08829C20.3824 2.03829 19.2706 1.23535 18.2824 1.23535ZM0.617676 6.60888V17.9118C0.617676 19.0236 1.29709 19.7648 2.28532 19.7648H18.3441C19.3324 19.7648 20.4441 18.9618 20.4441 17.9118V6.60888H0.617676ZM6.11473 16.9854H4.63238C4.38532 16.9854 4.13826 16.8001 4.13826 16.4912V14.9471C4.13826 14.7001 4.32356 14.453 4.63238 14.453H6.1765C6.42356 14.453 6.67062 14.6383 6.67062 14.9471V16.4912C6.60885 16.8001 6.42356 16.9854 6.11473 16.9854ZM6.11473 11.4265H4.63238C4.38532 11.4265 4.13826 11.2412 4.13826 10.9324V9.38829C4.13826 9.14123 4.32356 8.89418 4.63238 8.89418H6.1765C6.42356 8.89418 6.67062 9.07947 6.67062 9.38829V10.9324C6.60885 11.2412 6.42356 11.4265 6.11473 11.4265ZM11.0559 16.9854H9.51179C9.26473 16.9854 9.01768 16.8001 9.01768 16.4912V14.9471C9.01768 14.7001 9.20297 14.453 9.51179 14.453H11.0559C11.303 14.453 11.55 14.6383 11.55 14.9471V16.4912C11.55 16.8001 11.3647 16.9854 11.0559 16.9854ZM11.0559 11.4265H9.51179C9.26473 11.4265 9.01768 11.2412 9.01768 10.9324V9.38829C9.01768 9.14123 9.20297 8.89418 9.51179 8.89418H11.0559C11.303 8.89418 11.55 9.07947 11.55 9.38829V10.9324C11.55 11.2412 11.3647 11.4265 11.0559 11.4265ZM15.9971 16.9854H14.453C14.2059 16.9854 13.9589 16.8001 13.9589 16.4912V14.9471C13.9589 14.7001 14.1441 14.453 14.453 14.453H15.9971C16.2441 14.453 16.4912 14.6383 16.4912 14.9471V16.4912C16.4912 16.8001 16.3059 16.9854 15.9971 16.9854ZM15.9971 11.4265H14.453C14.2059 11.4265 13.9589 11.2412 13.9589 10.9324V9.38829C13.9589 9.14123 14.1441 8.89418 14.453 8.89418H15.9971C16.2441 8.89418 16.4912 9.07947 16.4912 9.38829V10.9324C16.4912 11.2412 16.3059 11.4265 15.9971 11.4265Z" fill="white"/>
</svg>
