<svg width="21" height="21" viewBox="0 0 21 21" fill="none" xmlns="http://www.w3.org/2000/svg">
<g clip-path="url(#clip0)">
<path d="M10.5 8.4751C12.4708 8.4751 14.0684 6.87749 14.0684 4.90674C14.0684 2.93599 12.4708 1.33838 10.5 1.33838C8.52925 1.33838 6.93164 2.93599 6.93164 4.90674C6.93164 6.87749 8.52925 8.4751 10.5 8.4751Z" fill="white"/>
<path d="M17.7188 8.4751C18.9646 8.4751 19.9746 7.46512 19.9746 6.21924C19.9746 4.97336 18.9646 3.96338 17.7188 3.96338C16.4729 3.96338 15.4629 4.97336 15.4629 6.21924C15.4629 7.46512 16.4729 8.4751 17.7188 8.4751Z" fill="white"/>
<path d="M3.28125 8.4751C4.52713 8.4751 5.53711 7.46512 5.53711 6.21924C5.53711 4.97336 4.52713 3.96338 3.28125 3.96338C2.03537 3.96338 1.02539 4.97336 1.02539 6.21924C1.02539 7.46512 2.03537 8.4751 3.28125 8.4751Z" fill="white"/>
<path d="M5.50389 10.5012C4.6159 9.77364 3.81171 9.86994 2.78496 9.86994C1.24934 9.86994 0 11.1119 0 12.6381V17.1174C0 17.7802 0.540996 18.3191 1.20627 18.3191C4.07843 18.3191 3.73242 18.3711 3.73242 18.1953C3.73242 15.0213 3.35647 12.6936 5.50389 10.5012Z" fill="white"/>
<path d="M11.4766 9.8858C9.68321 9.73622 8.12441 9.88752 6.77988 10.9973C4.52989 12.7995 4.96289 15.2261 4.96289 18.1947C4.96289 18.9801 5.60191 19.6311 6.39926 19.6311C15.0569 19.6311 15.4015 19.9104 15.9149 18.7735C16.0833 18.389 16.0371 18.5112 16.0371 14.8331C16.0371 11.9117 13.5076 9.8858 11.4766 9.8858Z" fill="white"/>
<path d="M18.215 9.86984C17.1827 9.86984 16.3829 9.77452 15.4961 10.5011C17.6275 12.6772 17.2676 14.8461 17.2676 18.1952C17.2676 18.3721 16.9803 18.319 19.7506 18.319C20.4397 18.319 21 17.7608 21 17.0746V12.638C21 11.1118 19.7506 9.86984 18.215 9.86984Z" fill="white"/>
</g>
<defs>
<clipPath id="clip0">
<rect width="21" height="21" fill="white"/>
</clipPath>
</defs>
</svg>
