<svg width="21" height="21" viewBox="0 0 21 21" fill="none" xmlns="http://www.w3.org/2000/svg">
<path d="M10.5015 0C7.50144 0 5.04907 2.45237 5.04907 5.45239C5.04907 8.45241 7.50144 10.9048 10.5015 10.9048C13.5015 10.9048 15.9538 8.45241 15.9538 5.45239C15.9538 2.45237 13.5015 0 10.5015 0Z" fill="white"/>
<path d="M19.8584 15.262C19.7156 14.9049 19.5251 14.5715 19.3108 14.262C18.2156 12.6429 16.5251 11.5715 14.6204 11.3096C14.3823 11.2858 14.1204 11.3334 13.9299 11.4763C12.9299 12.2144 11.7394 12.5953 10.5013 12.5953C9.2632 12.5953 8.07274 12.2144 7.07273 11.4763C6.88224 11.3334 6.62033 11.262 6.38226 11.3096C4.47749 11.5715 2.76322 12.6429 1.6918 14.262C1.47752 14.5715 1.28702 14.9287 1.1442 15.262C1.07279 15.4049 1.09658 15.5715 1.16799 15.7144C1.35848 16.0477 1.59656 16.3811 1.81084 16.6668C2.14416 17.1192 2.50131 17.5239 2.90609 17.9049C3.23941 18.2382 3.62036 18.5477 4.00135 18.8573C5.88228 20.262 8.1442 21.0001 10.4775 21.0001C12.8109 21.0001 15.0728 20.262 16.9537 18.8573C17.3347 18.5716 17.7156 18.2382 18.049 17.9049C18.4299 17.5239 18.8109 17.1192 19.1442 16.6668C19.3823 16.3573 19.5966 16.0477 19.7871 15.7144C19.9061 15.5715 19.9299 15.4048 19.8584 15.262Z" fill="white"/>
</svg>
