<svg width="21" height="21" viewBox="0 0 21 21" fill="none" xmlns="http://www.w3.org/2000/svg">
<path d="M18.375 2.625H16.4062V0.65625C16.4062 0.294 16.1123 0 15.75 0H3.9375C2.85206 0 1.96875 0.883312 1.96875 1.96875V18.375C1.96875 19.8227 3.14606 21 4.59375 21H18.375C18.7372 21 19.0312 20.706 19.0312 20.3438V3.28125C19.0312 2.919 18.7372 2.625 18.375 2.625ZM15.0938 16.4062C15.0938 16.7685 14.7998 17.0625 14.4375 17.0625H6.5625C6.20025 17.0625 5.90625 16.7685 5.90625 16.4062V15.0938C5.90625 13.2838 7.37887 11.8125 9.1875 11.8125H11.8125C13.6224 11.8125 15.0938 13.2838 15.0938 15.0938V16.4062ZM7.875 7.875C7.875 6.42731 9.05231 5.25 10.5 5.25C11.9477 5.25 13.125 6.42731 13.125 7.875C13.125 9.32269 11.9477 10.5 10.5 10.5C9.05231 10.5 7.875 9.32269 7.875 7.875ZM15.0938 2.625H3.9375C3.57525 2.625 3.28125 2.331 3.28125 1.96875C3.28125 1.6065 3.57525 1.3125 3.9375 1.3125H15.0938V2.625Z" fill="white"/>
</svg>
