<svg width="21" height="21" viewBox="0 0 21 21" fill="none" xmlns="http://www.w3.org/2000/svg">
<path d="M19.3798 8.44922H14.1298C14.0396 8.44922 13.9658 8.52305 13.9658 8.61328V9.59766C13.9658 9.68789 14.0396 9.76172 14.1298 9.76172H19.3798C19.4701 9.76172 19.5439 9.68789 19.5439 9.59766V8.61328C19.5439 8.52305 19.4701 8.44922 19.3798 8.44922ZM16.6318 11.2383H14.1298C14.0396 11.2383 13.9658 11.3121 13.9658 11.4023V12.3867C13.9658 12.477 14.0396 12.5508 14.1298 12.5508H16.6318C16.722 12.5508 16.7959 12.477 16.7959 12.3867V11.4023C16.7959 11.3121 16.722 11.2383 16.6318 11.2383ZM9.78833 6.61377H8.90034C8.77319 6.61377 8.67065 6.71631 8.67065 6.84346V11.9294C8.67065 12.0032 8.70552 12.0709 8.76499 12.114L11.8186 14.3411C11.9211 14.4149 12.0647 14.3944 12.1385 14.2919L12.6656 13.5721V13.57C12.7394 13.4675 12.7168 13.3239 12.6143 13.2501L10.016 11.3716V6.84346C10.018 6.71631 9.91343 6.61377 9.78833 6.61377Z" fill="#7E88F4"/>
<path d="M16.5047 13.8203H15.3194C15.2045 13.8203 15.0958 13.8797 15.0343 13.9782C14.7738 14.3904 14.4703 14.7718 14.1217 15.1204C13.5208 15.7213 12.8215 16.193 12.0443 16.5211C11.2383 16.8616 10.3831 17.0338 9.50128 17.0338C8.6174 17.0338 7.76222 16.8616 6.95831 16.5211C6.18107 16.193 5.48175 15.7213 4.88087 15.1204C4.27999 14.5196 3.80832 13.8203 3.48019 13.043C3.13976 12.2391 2.96749 11.3839 2.96749 10.5C2.96749 9.61615 3.13976 8.76303 3.48019 7.95707C3.80832 7.17982 4.27999 6.48051 4.88087 5.87963C5.48175 5.27875 6.18107 4.80707 6.95831 4.47895C7.76222 4.13852 8.61945 3.96625 9.50128 3.96625C10.3852 3.96625 11.2403 4.13852 12.0443 4.47895C12.8215 4.80707 13.5208 5.27875 14.1217 5.87963C14.4703 6.22826 14.7738 6.60971 15.0343 7.02191C15.0958 7.12035 15.2045 7.17982 15.3194 7.17982H16.5047C16.6462 7.17982 16.7364 7.03217 16.6729 6.90707C15.3358 4.24721 12.6246 2.5184 9.59767 2.48354C5.16593 2.42816 1.48478 6.056 1.47658 10.4836C1.46837 14.9195 5.06339 18.5186 9.49923 18.5186C12.5652 18.5186 15.3214 16.7836 16.6729 14.093C16.7364 13.9679 16.6442 13.8203 16.5047 13.8203Z" fill="#7E88F4"/>
</svg>
