<svg width="16" height="12" viewBox="0 0 16 12" fill="none" xmlns="http://www.w3.org/2000/svg">
<path d="M14.1714 5.30816C14.4874 5.7215 14.4874 6.2795 14.1714 6.69216C13.1761 7.9915 10.7881 10.6668 8.00009 10.6668C5.21209 10.6668 2.82409 7.9915 1.82876 6.69216C1.67501 6.49425 1.59155 6.25078 1.59155 6.00016C1.59155 5.74955 1.67501 5.50608 1.82876 5.30816C2.82409 4.00883 5.21209 1.3335 8.00009 1.3335C10.7881 1.3335 13.1761 4.00883 14.1714 5.30816V5.30816Z" stroke="#838383" stroke-width="2" stroke-linecap="round" stroke-linejoin="round"/>
<path d="M8 8C9.10457 8 10 7.10457 10 6C10 4.89543 9.10457 4 8 4C6.89543 4 6 4.89543 6 6C6 7.10457 6.89543 8 8 8Z" stroke="#838383" stroke-width="2" stroke-linecap="round" stroke-linejoin="round"/>
</svg>
