<svg width="18" height="18" viewBox="0 0 18 18" fill="none" xmlns="http://www.w3.org/2000/svg">
<g clip-path="url(#clip0)">
<path d="M1.12478 1.22619C-0.289717 2.69544 -0.000216767 4.25619 -0.000216767 8.99769C-0.000216767 12.9352 -0.687217 16.8824 2.90828 17.8117C4.03103 18.1004 13.979 18.1004 15.1003 17.8102C16.5973 17.4239 17.8153 16.2097 17.9818 14.0924C18.005 13.7969 18.005 4.20369 17.981 3.90219C17.804 1.64694 16.4158 0.347189 14.5865 0.0839386C14.1673 0.0231886 14.0833 0.0051886 11.9323 0.0014386C4.30253 0.0051886 2.63003 -0.334561 1.12478 1.22619Z" fill="url(#paint0_linear)"/>
<path d="M8.99836 2.35407C6.27511 2.35407 3.68911 2.11182 2.70136 4.64682C2.29336 5.69382 2.35261 7.05357 2.35261 9.00057C2.35261 10.7091 2.29786 12.3148 2.70136 13.3536C3.68686 15.8901 6.29386 15.6471 8.99686 15.6471C11.6046 15.6471 14.2934 15.9186 15.2931 13.3536C15.7019 12.2961 15.6419 10.9566 15.6419 9.00057C15.6419 6.40407 15.7851 4.72782 14.5259 3.46932C13.2509 2.19432 11.5266 2.35407 8.99536 2.35407H8.99836ZM8.40286 3.55182C14.0834 3.54282 14.8064 2.91132 14.4074 11.6841C14.2656 14.7868 11.9031 14.4463 8.99911 14.4463C3.70411 14.4463 3.55186 14.2948 3.55186 8.99757C3.55186 3.63882 3.97186 3.55482 8.40286 3.55032V3.55182ZM12.5459 4.65507C12.1056 4.65507 11.7486 5.01207 11.7486 5.45232C11.7486 5.89257 12.1056 6.24957 12.5459 6.24957C12.9861 6.24957 13.3431 5.89257 13.3431 5.45232C13.3431 5.01207 12.9861 4.65507 12.5459 4.65507ZM8.99836 5.58732C7.11361 5.58732 5.58586 7.11582 5.58586 9.00057C5.58586 10.8853 7.11361 12.4131 8.99836 12.4131C10.8831 12.4131 12.4101 10.8853 12.4101 9.00057C12.4101 7.11582 10.8831 5.58732 8.99836 5.58732ZM8.99836 6.78507C11.9271 6.78507 11.9309 11.2161 8.99836 11.2161C6.07036 11.2161 6.06586 6.78507 8.99836 6.78507Z" fill="white"/>
</g>
<defs>
<linearGradient id="paint0_linear" x1="1.1593" y1="16.8518" x2="17.8884" y2="2.37292" gradientUnits="userSpaceOnUse">
<stop stop-color="#FFDD55"/>
<stop offset="0.5" stop-color="#FF543E"/>
<stop offset="1" stop-color="#C837AB"/>
</linearGradient>
<clipPath id="clip0">
<rect width="18" height="18" fill="white"/>
</clipPath>
</defs>
</svg>
