<svg width="24" height="24" viewBox="0 0 24 24" fill="none" xmlns="http://www.w3.org/2000/svg">
<path d="M6.969 6.97034C7.03867 6.9005 7.12143 6.84508 7.21255 6.80727C7.30366 6.76946 7.40135 6.75 7.5 6.75C7.59865 6.75 7.69633 6.76946 7.78745 6.80727C7.87857 6.84508 7.96133 6.9005 8.031 6.97034L12 10.9408L15.969 6.97034C16.0387 6.90061 16.1215 6.84529 16.2126 6.80756C16.3037 6.76982 16.4014 6.75039 16.5 6.75039C16.5986 6.75039 16.6963 6.76982 16.7874 6.80756C16.8785 6.84529 16.9613 6.90061 17.031 6.97034C17.1007 7.04007 17.156 7.12286 17.1938 7.21396C17.2315 7.30507 17.2509 7.40272 17.2509 7.50134C17.2509 7.59996 17.2315 7.69761 17.1938 7.78872C17.156 7.87982 17.1007 7.96261 17.031 8.03234L13.0605 12.0013L17.031 15.9703C17.1007 16.0401 17.156 16.1229 17.1938 16.214C17.2315 16.3051 17.2509 16.4027 17.2509 16.5013C17.2509 16.6 17.2315 16.6976 17.1938 16.7887C17.156 16.8798 17.1007 16.9626 17.031 17.0323C16.9613 17.1021 16.8785 17.1574 16.7874 17.1951C16.6963 17.2329 16.5986 17.2523 16.5 17.2523C16.4014 17.2523 16.3037 17.2329 16.2126 17.1951C16.1215 17.1574 16.0387 17.1021 15.969 17.0323L12 13.0618L8.031 17.0323C7.96127 17.1021 7.87848 17.1574 7.78737 17.1951C7.69626 17.2329 7.59861 17.2523 7.5 17.2523C7.40138 17.2523 7.30373 17.2329 7.21262 17.1951C7.12151 17.1574 7.03873 17.1021 6.969 17.0323C6.89927 16.9626 6.84395 16.8798 6.80621 16.7887C6.76847 16.6976 6.74905 16.6 6.74905 16.5013C6.74905 16.4027 6.76847 16.3051 6.80621 16.214C6.84395 16.1229 6.89927 16.0401 6.969 15.9703L10.9395 12.0013L6.969 8.03234C6.89915 7.96267 6.84374 7.87991 6.80593 7.78879C6.76812 7.69767 6.74866 7.59999 6.74866 7.50134C6.74866 7.40269 6.76812 7.30501 6.80593 7.21389C6.84374 7.12277 6.89915 7.04001 6.969 6.97034Z" fill="#838383"/>
</svg>
