<svg width="16" height="16" viewBox="0 0 16 16" fill="none" xmlns="http://www.w3.org/2000/svg">
<path d="M8.00004 1.1665C8.55347 1.16647 9.08593 1.37821 9.48819 1.75829C9.89046 2.13836 10.132 2.65797 10.1634 3.2105L10.1667 3.33317H13.6667C13.7934 3.33321 13.9153 3.38133 14.0079 3.46782C14.1005 3.5543 14.1568 3.6727 14.1654 3.79909C14.174 3.92548 14.1344 4.05043 14.0544 4.1487C13.9745 4.24697 13.8602 4.31124 13.7347 4.3285L13.6667 4.33317H13.136L12.2827 13.0132C12.24 13.4459 12.0448 13.8494 11.732 14.1515C11.4193 14.4536 11.0093 14.6347 10.5754 14.6625L10.458 14.6665H5.54204C5.10701 14.6665 4.68617 14.5118 4.35471 14.23C4.02325 13.9483 3.80279 13.5578 3.73271 13.1285L3.71737 13.0125L2.86337 4.33317H2.33337C2.21255 4.33317 2.09581 4.28941 2.00475 4.20999C1.91369 4.13058 1.85447 4.02087 1.83804 3.90117L1.83337 3.83317C1.83338 3.71235 1.87714 3.59561 1.95655 3.50455C2.03597 3.41349 2.14567 3.35427 2.26537 3.33784L2.33337 3.33317H5.83337C5.83337 2.75853 6.06165 2.20743 6.46798 1.80111C6.87431 1.39478 7.42541 1.1665 8.00004 1.1665ZM12.1314 4.33317H3.86804L4.71271 12.9145C4.73141 13.106 4.81579 13.2851 4.95152 13.4214C5.08726 13.5578 5.26598 13.6429 5.45737 13.6625L5.54204 13.6665H10.458C10.858 13.6665 11.1974 13.3832 11.2747 12.9985L11.288 12.9145L12.1307 4.33317H12.1314ZM9.16671 6.1665C9.28753 6.16651 9.40427 6.21027 9.49533 6.28968C9.58639 6.3691 9.64561 6.4788 9.66204 6.5985L9.66671 6.6665V11.3332C9.66667 11.4599 9.61854 11.5818 9.53206 11.6744C9.44557 11.7669 9.32718 11.8232 9.20079 11.8319C9.0744 11.8405 8.94945 11.8008 8.85117 11.7209C8.7529 11.6409 8.68864 11.5267 8.67137 11.4012L8.66671 11.3332V6.6665C8.66671 6.5339 8.71939 6.40672 8.81315 6.31295C8.90692 6.21918 9.0341 6.1665 9.16671 6.1665ZM6.83337 6.1665C6.9542 6.16651 7.07094 6.21027 7.16199 6.28968C7.25305 6.3691 7.31228 6.4788 7.32871 6.5985L7.33337 6.6665V11.3332C7.33334 11.4599 7.28521 11.5818 7.19873 11.6744C7.11224 11.7669 6.99384 11.8232 6.86745 11.8319C6.74107 11.8405 6.61611 11.8008 6.51784 11.7209C6.41957 11.6409 6.35531 11.5267 6.33804 11.4012L6.33337 11.3332V6.6665C6.33337 6.5339 6.38605 6.40672 6.47982 6.31295C6.57359 6.21918 6.70077 6.1665 6.83337 6.1665ZM8.00004 2.1665C7.70725 2.16651 7.42516 2.27662 7.20978 2.47496C6.9944 2.6733 6.86147 2.94537 6.83737 3.23717L6.83337 3.33317H9.16671C9.16671 3.02375 9.04379 2.72701 8.825 2.50821C8.60621 2.28942 8.30946 2.1665 8.00004 2.1665Z" fill="#5C5C5C"/>
</svg>
