<svg width="20" height="20" viewBox="0 0 20 20" fill="none" xmlns="http://www.w3.org/2000/svg">
<path d="M18.4023 9.49641C17.7157 8.04993 16.8987 6.87024 15.9512 5.95735L14.9574 6.9511C15.7678 7.72551 16.4736 8.7386 17.084 10.0003C15.459 13.3636 13.1523 14.9613 9.99999 14.9613C9.05377 14.9613 8.18222 14.8156 7.38534 14.5241L6.30858 15.6009C7.41536 16.112 8.64582 16.3675 9.99999 16.3675C13.7539 16.3675 16.5547 14.4124 18.4023 10.5023C18.4766 10.345 18.5151 10.1733 18.5151 9.99934C18.5151 9.82543 18.4766 9.65367 18.4023 9.49641ZM17.1607 3.23391L16.3281 2.40032C16.3136 2.38579 16.2964 2.37427 16.2774 2.3664C16.2584 2.35854 16.2381 2.35449 16.2176 2.35449C16.197 2.35449 16.1767 2.35854 16.1577 2.3664C16.1388 2.37427 16.1215 2.38579 16.107 2.40032L13.9709 4.53547C12.7932 3.93391 11.4695 3.63313 9.99999 3.63313C6.24608 3.63313 3.4453 5.58821 1.59765 9.49837C1.52338 9.65563 1.48486 9.82738 1.48486 10.0013C1.48486 10.1752 1.52338 10.347 1.59765 10.5042C2.3358 12.0589 3.22447 13.3051 4.26366 14.2427L2.19687 16.3089C2.16759 16.3382 2.15114 16.3779 2.15114 16.4194C2.15114 16.4608 2.16759 16.5005 2.19687 16.5298L3.03065 17.3636C3.05995 17.3929 3.09968 17.4093 3.1411 17.4093C3.18253 17.4093 3.22225 17.3929 3.25155 17.3636L17.1607 3.45501C17.1753 3.44049 17.1868 3.42326 17.1946 3.40429C17.2025 3.38532 17.2066 3.36499 17.2066 3.34446C17.2066 3.32393 17.2025 3.30359 17.1946 3.28462C17.1868 3.26566 17.1753 3.24842 17.1607 3.23391ZM2.91601 10.0003C4.54296 6.63704 6.8496 5.03938 9.99999 5.03938C11.0652 5.03938 12.0338 5.22219 12.9125 5.59387L11.5394 6.96692C10.8892 6.61997 10.1446 6.49121 9.41563 6.59963C8.68662 6.70804 8.01176 7.0479 7.4906 7.56905C6.96944 8.09021 6.62959 8.76507 6.52117 9.49408C6.41276 10.2231 6.54152 10.9676 6.88847 11.6179L5.25917 13.2472C4.35741 12.4513 3.58007 11.373 2.91601 10.0003ZM7.73437 10.0003C7.73471 9.65591 7.81629 9.31645 7.97247 9.00949C8.12866 8.70254 8.35505 8.43676 8.63326 8.23374C8.91146 8.03071 9.23363 7.89618 9.5736 7.84107C9.91356 7.78595 10.2617 7.8118 10.5898 7.91653L7.83808 10.6683C7.7691 10.4524 7.73412 10.227 7.73437 10.0003Z" fill="#838383"/>
<path d="M9.92208 12.1879C9.8545 12.1879 9.7879 12.1848 9.72188 12.1787L8.69025 13.2103C9.31073 13.448 9.98677 13.5008 10.6366 13.3624C11.2865 13.224 11.8823 12.9003 12.3522 12.4305C12.822 11.9607 13.1457 11.3648 13.2841 10.7149C13.4225 10.0651 13.3697 9.38904 13.132 8.76855L12.1004 9.80019C12.1064 9.86621 12.1096 9.93281 12.1096 10.0004C12.1097 10.2877 12.0533 10.5722 11.9434 10.8377C11.8335 11.1032 11.6724 11.3444 11.4692 11.5475C11.2661 11.7507 11.0248 11.9118 10.7594 12.0217C10.4939 12.1316 10.2094 12.188 9.92208 12.1879Z" fill="#838383"/>
</svg>
